<?xml version="1.0" standalone="no"?>
<!DOCTYPE svg PUBLIC "-//W3C//DTD SVG 20010904//EN"
 "http://www.w3.org/TR/2001/REC-SVG-20010904/DTD/svg10.dtd">
<svg version="1.0" xmlns="http://www.w3.org/2000/svg"
 width="960.000000pt" height="950.000000pt" viewBox="0 0 960.000000 950.000000"
 preserveAspectRatio="xMidYMid meet">

<g transform="translate(0.000000,950.000000) scale(0.100000,-0.100000)"
fill="#000000" stroke="none">
<path d="M1 9378 c0 -68 3 -117 6 -110 8 19 63 72 76 72 7 0 18 9 24 19 8 13
19 18 33 14 14 -4 20 -1 20 11 0 20 4 20 40 1 27 -14 42 -45 22 -45 -5 0 -8
-15 -7 -32 2 -37 -20 -78 -41 -78 -21 0 -17 -27 7 -49 20 -18 20 -23 9 -51 -7
-16 -16 -30 -21 -30 -5 0 -9 -9 -9 -20 0 -10 -9 -24 -21 -31 -18 -9 -25 -7
-48 14 -14 14 -33 26 -41 27 -31 4 -42 0 -36 -15 3 -8 1 -15 -4 -15 -6 0 -10
-192 -10 -523 l0 -524 23 -10 c33 -17 67 -22 67 -12 0 13 64 38 70 28 14 -20
206 -9 263 16 24 10 21 16 -18 45 -18 14 -39 36 -45 50 -27 59 -55 90 -82 90
-21 0 -29 6 -34 25 -3 14 -4 32 0 40 13 34 -14 12 -30 -25 -11 -24 -25 -40
-35 -40 -10 0 -19 -6 -21 -12 -6 -16 -38 14 -38 34 1 24 38 58 63 58 19 0 27
6 29 23 2 12 9 21 15 20 6 -1 15 11 18 28 6 25 11 30 28 25 12 -3 37 0 55 6
27 10 38 9 65 -5 28 -15 38 -16 60 -6 15 7 27 20 27 30 0 10 9 23 19 29 21 11
19 38 -6 76 -10 16 -20 20 -41 16 -34 -7 -56 -28 -48 -47 8 -22 -34 -19 -61 4
-36 30 -30 63 17 93 34 23 41 24 51 11 7 -8 29 -23 49 -33 41 -21 57 -16 102
34 24 26 34 30 78 29 41 0 48 2 39 13 -19 23 12 17 37 -7 20 -19 26 -20 58 -8
39 14 51 49 17 49 -20 0 -34 14 -37 38 -3 19 -7 22 -35 27 -39 8 -79 27 -74
35 3 5 -2 15 -10 23 -18 18 -20 37 -4 37 6 0 8 7 5 16 -3 9 -2 12 5 9 6 -5 9
9 8 37 -1 27 7 58 20 83 22 42 27 65 12 65 -8 0 -20 26 -26 55 -1 6 -4 17 -7
25 -3 8 -11 35 -19 60 -7 25 -19 53 -27 63 -24 27 -28 119 -7 150 9 14 15 38
13 54 l-3 27 -92 -3 c-62 -2 -93 1 -93 8 0 8 -66 11 -210 11 l-210 0 1 -122z
m532 -310 c15 1 16 -2 7 -14 -7 -8 -23 -14 -36 -14 -21 0 -23 -4 -18 -25 8
-31 -13 -34 -45 -6 -36 32 3 79 54 64 11 -4 28 -6 38 -5z m-5 -313 c-21 -25
-68 -35 -68 -15 0 22 26 39 57 40 l33 0 -22 -25z m-428 -516 c0 -7 9 -20 21
-30 17 -15 18 -20 7 -38 -17 -28 -27 -26 -42 9 -7 17 -15 27 -19 23 -9 -8 -9
10 -1 31 7 18 34 22 34 5z"/>
<path d="M665 9490 c3 -5 8 -10 11 -10 2 0 4 5 4 10 0 6 -5 10 -11 10 -5 0 -7
-4 -4 -10z"/>
<path d="M3225 9463 c6 -33 28 -62 46 -63 16 0 43 -80 44 -132 2 -54 14 -98
36 -141 5 -9 12 -41 14 -70 10 -104 45 -165 83 -141 21 14 22 29 5 74 -8 19
-13 62 -12 95 1 33 -1 67 -4 75 -31 76 -70 204 -72 240 -2 25 3 57 10 73 l13
27 -85 0 -85 0 7 -37z"/>
<path d="M3908 9383 c-4 -92 -10 -128 -27 -164 -21 -46 -21 -109 0 -109 15 0
10 -73 -6 -104 -8 -15 -15 -47 -15 -69 0 -29 -10 -57 -32 -94 l-32 -53 -73 0
c-58 0 -73 3 -73 15 0 8 -7 15 -16 15 -10 0 -14 -7 -12 -22 3 -21 8 -23 58
-21 44 2 50 1 32 -7 -13 -6 -28 -8 -33 -4 -13 7 -11 1 6 -32 17 -34 19 -56 5
-70 -5 -5 -11 -22 -12 -37 -2 -23 -7 -27 -38 -29 -59 -2 -74 2 -102 29 -21 20
-29 39 -34 85 -5 43 -11 58 -22 58 -8 0 -13 3 -9 6 3 3 -3 15 -14 27 -10 11
-19 29 -19 39 0 25 -12 22 -33 -8 -20 -27 -27 -104 -14 -141 7 -19 5 -23 -14
-23 -19 0 -21 -4 -16 -36 3 -20 20 -57 37 -83 36 -58 40 -113 10 -172 -32 -62
-60 -89 -89 -87 -28 2 -71 -17 -71 -32 0 -4 9 -29 20 -54 22 -52 43 -62 34
-16 -4 18 -1 35 7 44 8 9 20 22 27 31 14 17 40 19 61 6 12 -8 12 -12 2 -24
-10 -12 -9 -17 2 -24 14 -8 41 -129 32 -144 -3 -4 -1 -10 4 -14 6 -3 8 -12 4
-20 -3 -10 1 -15 15 -15 16 0 23 -8 28 -35 16 -87 1 -215 -34 -282 -24 -46
-27 -57 -13 -49 5 3 2 -15 -6 -42 -8 -26 -16 -56 -17 -67 -2 -16 -11 -21 -42
-23 -52 -5 -114 16 -114 38 0 19 -17 19 -75 1 -39 -13 -65 -35 -65 -55 0 -12
77 -56 98 -56 7 0 20 -13 30 -30 16 -25 17 -38 9 -82 -15 -83 2 -125 78 -201
58 -57 65 -68 65 -103 0 -33 -7 -46 -35 -74 -19 -19 -35 -40 -35 -47 0 -7 -11
-36 -23 -65 -24 -53 -45 -71 -99 -82 -33 -7 -106 22 -113 45 -3 8 6 37 19 63
14 27 22 54 20 61 -7 18 -49 33 -116 41 -32 3 -58 10 -58 15 0 15 -42 10 -62
-8 -17 -15 -19 -15 -37 1 -10 9 -24 37 -31 62 -11 38 -10 47 2 62 9 9 19 28
22 42 17 59 29 80 48 80 25 0 31 20 17 56 -7 16 -12 47 -11 69 2 29 -4 48 -22
69 l-24 29 -14 -34 c-8 -19 -22 -64 -32 -101 -10 -38 -22 -68 -26 -68 -5 0
-11 -8 -15 -19 -4 -14 -19 -20 -62 -26 -33 -4 -58 -3 -62 3 -9 14 -49 24 -55
13 -4 -5 4 -18 17 -28 l23 -18 -23 -25 c-13 -13 -26 -39 -29 -57 -3 -17 -15
-39 -25 -49 -20 -18 -26 -59 -9 -69 6 -3 10 -33 10 -65 0 -32 4 -60 10 -62 5
-1 13 -24 16 -50 6 -42 2 -56 -40 -141 -25 -52 -46 -99 -46 -105 0 -6 -13 -18
-29 -27 -23 -11 -40 -13 -78 -6 -84 17 -166 40 -182 53 -55 44 -92 42 -135 -8
l-22 -27 25 -28 c26 -29 96 -59 135 -59 11 0 36 -9 54 -20 18 -11 41 -20 52
-20 13 0 20 -7 20 -20 0 -11 -5 -20 -11 -20 -5 0 -7 -5 -4 -10 9 -14 -44 -56
-65 -52 -9 1 -30 -4 -46 -13 -16 -8 -37 -15 -47 -15 -11 0 -34 -7 -53 -16 -26
-12 -34 -22 -34 -43 0 -21 7 -29 37 -39 21 -8 61 -17 88 -21 28 -4 64 -14 80
-21 17 -7 45 -19 63 -27 17 -8 32 -18 32 -24 0 -5 11 -14 25 -19 14 -5 25 -14
25 -20 0 -10 71 -50 89 -50 5 0 28 -12 50 -27 39 -25 52 -55 31 -68 -5 -3 -10
-28 -10 -54 0 -43 5 -52 49 -100 45 -48 54 -53 102 -58 30 -3 58 -9 63 -14 13
-12 53 -12 60 0 3 5 15 7 26 4 11 -3 18 -9 15 -13 -9 -14 14 -60 32 -67 22 -9
43 -28 43 -41 0 -6 7 -13 16 -16 10 -4 19 3 27 23 12 28 50 64 94 89 28 15 63
15 99 2 19 -8 30 -8 38 0 14 14 53 13 59 -2 2 -7 7 -10 11 -7 3 3 -10 22 -29
42 -20 21 -31 37 -25 37 18 0 11 17 -9 23 -11 2 -21 15 -23 28 -2 20 -10 25
-40 27 -41 3 -45 9 -25 36 15 20 43 13 52 -13 7 -22 33 -23 40 -2 3 9 14 22
26 29 18 12 30 10 83 -8 51 -18 66 -30 94 -69 19 -29 32 -60 32 -78 0 -38 9
-65 20 -58 10 6 20 -47 14 -79 -2 -14 -13 -41 -24 -58 -32 -53 -33 -58 -22
-81 18 -36 18 -109 -1 -162 -9 -27 -19 -86 -21 -131 -3 -44 -10 -93 -16 -109
-8 -20 -8 -30 0 -35 6 -4 -26 -24 -72 -45 -75 -34 -185 -98 -198 -114 -3 -4
-38 -30 -78 -60 -40 -29 -92 -76 -117 -104 -25 -29 -45 -47 -45 -41 0 10 49
70 103 126 9 10 13 18 9 18 -4 0 -23 -16 -42 -35 -19 -19 -39 -35 -44 -34 -6
0 -5 3 2 6 28 11 9 20 -33 15 -35 -3 -50 0 -66 14 -11 10 -18 23 -15 29 3 8
-7 11 -30 9 -31 -2 -38 2 -59 36 -13 21 -29 41 -35 45 -19 12 -10 50 19 78 24
22 38 27 78 27 44 0 49 -3 63 -33 20 -43 51 -43 62 0 5 18 34 59 68 94 33 34
60 66 60 72 0 6 17 7 41 4 35 -5 41 -2 49 18 5 13 17 29 28 36 29 21 12 59
-26 59 -15 0 -33 5 -40 12 -9 9 -12 9 -12 -4 0 -21 -49 -12 -58 11 -3 9 -9 18
-13 21 -4 3 -10 22 -14 43 -6 33 -5 37 13 37 16 0 23 10 32 48 24 99 24 106
-5 122 -23 12 -28 12 -35 0 -8 -13 -10 -12 -10 2 0 9 -5 20 -11 24 -9 5 -10
-3 -5 -29 6 -33 3 -41 -32 -78 -36 -37 -43 -40 -76 -34 -45 9 -71 -8 -55 -36
8 -16 6 -19 -10 -19 -23 0 -34 28 -26 63 4 14 2 28 -3 31 -5 3 -13 -10 -16
-29 -7 -37 -47 -75 -78 -75 -24 0 -97 -50 -98 -67 0 -6 -14 -23 -32 -38 -25
-21 -29 -28 -17 -36 10 -6 10 -9 2 -9 -7 0 -13 -6 -13 -14 0 -7 -7 -27 -15
-42 -8 -16 -15 -44 -15 -62 0 -18 -10 -52 -21 -74 -21 -41 -37 -61 -127 -153
-41 -41 -43 -47 -37 -84 5 -32 2 -48 -19 -86 -27 -48 -34 -85 -15 -85 7 0 9
-11 6 -26 -3 -16 0 -28 9 -31 8 -3 14 -10 14 -17 0 -6 9 -17 20 -23 19 -13 19
-13 -3 -47 -14 -23 -30 -35 -44 -36 -35 0 -116 -50 -176 -108 -12 -11 -17 -27
-14 -45 2 -15 -1 -27 -5 -27 -5 0 -8 -17 -7 -38 3 -44 -5 -60 -29 -61 -9 -1
-35 -4 -57 -7 -40 -6 -42 -5 -75 44 -19 28 -37 49 -41 46 -9 -5 -22 14 -25 36
-1 8 -5 26 -8 40 -4 14 -4 19 0 13 7 -15 34 -17 34 -3 0 6 -4 10 -9 10 -5 0
-11 9 -14 20 -7 26 -56 28 -58 3 -3 -38 3 -54 27 -78 24 -24 25 -28 19 -137
-5 -106 -22 -195 -47 -245 -6 -13 -30 -28 -59 -37 -61 -20 -78 -20 -113 3 -23
15 -34 17 -58 9 -22 -8 -26 -13 -18 -23 6 -7 19 -11 29 -8 51 13 51 -105 0
-156 -36 -36 -102 -68 -107 -52 -5 16 -52 14 -52 -2 0 -18 -140 -21 -155 -3
-5 7 -30 21 -55 31 -25 10 -52 24 -60 31 -8 6 -31 15 -50 19 -54 12 -79 33
-86 73 -3 21 -8 44 -11 52 -4 8 -7 19 -7 23 -2 14 -39 37 -78 48 -22 5 -38 16
-38 24 0 8 -16 29 -35 46 -19 18 -33 34 -31 37 3 2 0 16 -5 30 -6 15 -7 48 -4
74 6 40 12 50 38 64 38 20 87 25 87 10 0 -16 56 -66 74 -66 22 0 46 39 46 76
0 17 9 42 20 55 11 13 24 29 28 35 17 20 31 51 26 57 -11 10 17 47 36 47 10 0
20 5 22 11 2 6 13 -8 25 -31 11 -23 24 -37 27 -32 3 6 0 17 -7 24 -18 17 -3
63 17 55 15 -6 46 22 46 41 0 11 24 10 81 -3 29 -7 45 7 58 52 9 32 -2 63 -23
63 -21 0 -46 34 -46 63 0 21 -5 27 -21 27 -11 0 -18 -4 -15 -9 6 -10 -170 -71
-206 -71 -13 0 -41 -12 -63 -25 -24 -15 -55 -25 -78 -25 -40 0 -97 24 -97 41
0 12 -40 70 -60 85 -8 7 -23 9 -35 4 -17 -6 -21 -18 -25 -81 -3 -45 -1 -77 5
-81 6 -5 5 -8 -2 -8 -7 0 -13 -10 -13 -22 0 -13 -7 -31 -15 -42 -12 -15 -21
-17 -52 -11 -21 4 -46 7 -55 8 -14 1 -18 10 -18 39 0 38 0 38 -24 22 -22 -14
-27 -52 -5 -38 5 3 9 -2 9 -10 0 -9 -6 -13 -13 -10 -13 5 -23 -3 -81 -68 -14
-16 -30 -28 -36 -28 -5 0 -10 -6 -11 -12 -1 -7 -2 -24 -2 -38 -2 -21 -7 -25
-40 -28 -33 -3 -38 0 -47 25 -5 15 -15 35 -20 43 -6 8 -17 29 -25 47 -28 61
-66 108 -88 108 -20 0 -48 38 -59 81 -6 25 8 54 25 54 7 0 17 15 22 33 8 25
15 31 33 30 24 -3 31 21 9 34 -7 4 -19 22 -26 39 -7 18 -19 31 -28 30 -9 0
-18 5 -21 13 -3 10 0 12 12 8 9 -4 16 -2 16 3 0 6 -4 10 -8 10 -5 0 -18 18
-31 40 -12 22 -28 40 -36 40 -7 0 -15 7 -19 15 -3 8 -12 15 -20 15 -21 0 -36
32 -36 74 0 26 4 34 14 30 14 -5 26 23 26 62 0 12 11 26 25 34 20 11 25 21 25
49 -1 20 -7 47 -14 60 l-13 23 -26 -25 c-15 -13 -27 -34 -27 -46 0 -12 -7 -35
-15 -51 -13 -25 -22 -30 -50 -30 l-35 0 0 -1376 0 -1375 23 6 22 6 -22 -20
c-31 -26 -32 -119 -3 -187 22 -50 20 -74 -5 -74 -13 0 -15 -24 -15 -168 0
-165 0 -169 23 -180 l22 -11 -23 -7 c-22 -6 -23 -10 -21 -113 1 -91 4 -107 20
-119 10 -7 19 -21 19 -30 0 -10 10 -22 22 -27 35 -16 46 -42 24 -58 -13 -9
-17 -21 -13 -36 7 -26 6 -26 -27 4 -15 14 -32 25 -37 25 -6 0 -9 -179 -7 -516
3 -486 4 -517 21 -528 15 -9 22 -7 35 9 21 25 75 30 92 10 7 -9 9 -19 5 -23
-4 -4 -10 -1 -12 6 -6 15 -63 16 -63 2 0 -6 6 -10 13 -9 40 5 48 -12 20 -43
-9 -10 -12 -18 -6 -18 5 0 15 -11 21 -25 10 -21 9 -25 -3 -25 -8 0 -15 5 -15
10 0 6 -7 10 -15 10 -9 0 -16 10 -16 28 -1 22 -2 23 -6 5 -7 -34 -31 -50 -49
-31 -12 12 -13 20 -5 36 10 19 6 32 -11 32 -4 0 -8 -49 -8 -110 0 -156 -9
-150 218 -150 164 0 178 1 189 19 11 17 23 19 125 16 62 -2 125 -6 141 -10 24
-7 27 -5 27 17 0 33 -36 64 -85 74 -22 4 -47 9 -55 11 -8 2 -34 6 -57 9 -30 4
-43 11 -46 26 -6 21 -27 16 -27 -6 0 -15 -47 -19 -56 -5 -3 5 -20 16 -37 23
-18 8 -41 21 -52 30 -20 15 -20 15 5 16 17 0 35 14 57 44 18 24 33 48 33 54 0
7 6 12 14 12 15 0 56 70 56 95 0 20 19 19 26 0 5 -12 16 -14 54 -9 49 6 77 -6
132 -59 10 -9 25 -17 33 -17 9 0 20 -11 25 -25 5 -14 19 -29 31 -33 20 -8 19
-9 -8 -22 -15 -7 -31 -13 -35 -12 -4 1 -6 -7 -5 -18 1 -23 2 -23 25 -11 9 4
35 11 57 15 l40 7 -33 -21 c-18 -11 -39 -20 -46 -20 -14 0 -33 -43 -31 -70 1
-8 3 -23 3 -32 3 -24 38 -31 97 -18 28 6 59 11 70 12 11 0 14 2 8 5 -17 6 -17
30 0 36 7 3 2 9 -13 15 -14 6 -19 11 -12 11 6 1 12 8 12 16 0 20 37 19 58 -2
15 -15 17 -14 23 8 5 18 7 19 8 6 1 -11 10 -21 21 -24 20 -5 28 -23 10 -23 -5
0 -10 -7 -10 -16 0 -12 7 -15 29 -12 17 2 30 2 29 -1 -3 -36 25 -43 42 -11 16
30 33 24 28 -10 l-5 -30 22 20 c25 24 35 25 35 6 0 -29 44 -85 68 -86 12 0 22
6 22 13 1 13 106 68 131 67 24 0 52 -36 46 -60 -5 -19 -1 -20 143 -20 122 0
149 3 154 15 8 21 82 21 90 0 8 -21 411 -23 419 -1 9 24 63 26 138 5 59 -16
169 -23 169 -11 0 2 -10 13 -22 24 -13 10 -16 17 -8 14 8 -3 23 -9 33 -12 10
-4 16 -13 13 -20 -5 -12 135 -14 882 -14 l887 0 25 37 c38 56 147 170 189 195
67 42 221 25 343 -38 17 -9 27 -11 24 -5 -18 28 -136 69 -236 81 -64 7 -64 7
36 9 107 1 159 -11 240 -56 72 -41 143 -139 144 -200 l0 -23 1727 0 1727 0 45
22 c25 12 55 33 66 47 87 109 195 161 385 184 26 4 48 -3 87 -27 54 -32 68
-48 34 -39 -34 9 -34 -71 1 -159 l10 -28 209 0 209 0 0 4750 0 4750 -1163 0
-1162 0 -24 -49 c-13 -27 -29 -52 -36 -55 -7 -2 -20 -19 -29 -37 -18 -36 -21
-53 -7 -45 5 3 12 -21 16 -54 4 -33 11 -62 15 -65 26 -16 70 -100 76 -144 7
-55 5 -58 -84 -117 -44 -29 -59 -34 -85 -28 -75 16 -95 43 -111 149 -1 11 -12
25 -23 30 -12 6 -27 16 -34 22 -24 18 -96 -19 -103 -54 -4 -16 -20 -37 -37
-48 -26 -17 -30 -26 -28 -60 1 -22 1 -51 0 -65 -2 -22 -3 -23 -10 -6 -5 13
-10 16 -15 8 -5 -8 -13 -8 -30 0 -19 8 -29 7 -46 -5 -12 -9 -29 -13 -36 -10
-8 3 -14 1 -14 -4 0 -17 13 -23 27 -12 11 9 13 0 13 -54 0 -89 -4 -97 -51 -97
-45 0 -59 18 -59 75 0 28 -5 38 -20 42 -11 3 -20 13 -20 22 0 9 -9 27 -20 41
-11 14 -20 33 -20 43 0 9 -4 17 -10 17 -5 0 -7 6 -4 13 2 7 -14 30 -37 51 -39
36 -109 135 -109 154 0 17 -67 72 -87 72 -12 0 -25 5 -29 12 -9 14 -34 -18
-34 -44 0 -10 -5 -18 -11 -18 -6 0 -3 -7 5 -16 9 -8 19 -27 22 -42 13 -59 36
-122 45 -122 5 0 9 -7 9 -15 0 -8 25 -40 55 -70 30 -31 55 -60 55 -65 0 -4 14
-13 30 -19 35 -12 50 -39 29 -52 -11 -7 -11 -11 -1 -17 10 -7 9 -15 -3 -39 -8
-17 -17 -45 -19 -62 -2 -18 -12 -42 -23 -54 -21 -23 -37 -62 -47 -112 -5 -22
-4 -26 4 -15 8 13 10 13 10 -2 0 -10 -4 -18 -9 -18 -15 0 -22 -35 -13 -60 9
-25 88 -60 134 -60 15 0 33 -7 42 -15 8 -8 19 -15 25 -15 13 0 36 -45 46 -88
3 -18 10 -30 13 -28 4 2 7 -42 7 -97 0 -76 5 -113 18 -147 11 -25 22 -47 25
-50 4 -3 13 -16 20 -28 12 -21 11 -26 -5 -38 -10 -7 -15 -14 -10 -14 4 0 -4
-22 -18 -49 -22 -44 -29 -50 -67 -57 -63 -11 -91 -11 -105 -1 -20 14 -45 -12
-40 -41 3 -13 -3 -46 -11 -73 -12 -37 -25 -55 -51 -71 -63 -39 -153 -15 -165
43 -9 49 -7 129 4 129 6 0 10 4 10 9 0 6 11 22 25 37 21 23 24 33 19 73 -4 41
-8 104 -19 371 -2 41 -8 88 -14 103 -6 16 -11 42 -11 58 0 16 -4 29 -10 29 -5
0 -8 28 -6 68 4 87 -23 205 -53 229 -27 22 -37 93 -14 93 8 0 11 5 8 10 -6 9
2 11 49 14 14 1 21 10 23 34 6 48 -10 62 -71 61 -80 -2 -128 29 -128 84 0 39
22 96 47 120 11 12 15 26 11 42 -6 23 -10 24 -49 19 -39 -6 -48 -3 -80 26 -20
17 -42 47 -49 66 -6 19 -16 34 -20 34 -5 0 -6 12 -4 28 2 15 7 46 11 69 4 23
20 60 36 83 l29 40 -64 0 c-69 0 -75 -3 -105 -66 l-19 -39 -13 28 c-7 16 -18
26 -26 23 -8 -3 -13 2 -13 12 0 36 -44 42 -312 42 -182 0 -258 -3 -258 -11 0
-6 -7 -9 -15 -5 -9 3 -15 0 -15 -8 0 -7 -14 -32 -30 -54 -25 -35 -36 -42 -64
-42 -35 0 -90 35 -80 51 3 5 -2 12 -10 15 -19 7 -22 25 -3 21 6 -1 12 5 12 13
0 13 -25 15 -157 18 -144 2 -180 -3 -149 -22 5 -3 12 -18 16 -33 3 -15 10 -30
14 -33 30 -22 41 -64 41 -157 0 -54 6 -114 13 -134 12 -34 74 -99 95 -99 5 0
24 -15 41 -32 19 -19 35 -29 39 -23 23 33 62 37 152 14 10 -3 15 3 14 19 0 12
3 22 8 22 4 0 8 -4 8 -10 0 -5 7 -7 15 -4 8 4 15 1 15 -5 0 -6 -4 -11 -10 -11
-5 0 -10 -4 -10 -10 0 -5 9 -10 21 -10 14 0 25 12 37 40 26 62 82 51 82 -16 0
-20 6 -34 16 -38 28 -11 44 -6 44 13 0 16 14 28 40 36 3 1 22 9 43 18 29 12
44 14 58 7 10 -6 19 -8 19 -5 0 3 15 -1 34 -9 35 -15 56 -7 56 21 0 33 41 4
44 -32 1 -5 21 -12 46 -15 41 -5 45 -7 46 -33 1 -15 8 -35 18 -45 20 -23 21
-52 1 -52 -8 0 -15 -4 -15 -9 0 -6 -12 -9 -27 -8 -23 2 -28 -3 -33 -28 -4 -24
-10 -29 -27 -27 -17 2 -23 -4 -28 -28 -7 -34 -37 -41 -54 -12 -6 9 -11 13 -11
7 0 -5 -5 -3 -10 5 -8 12 -13 11 -34 -9 -16 -15 -31 -21 -43 -17 -13 4 -26 -1
-38 -14 -14 -16 -26 -19 -48 -14 l-29 6 6 -43 c11 -66 9 -114 -3 -138 -10 -17
-21 -21 -61 -21 -30 0 -54 6 -63 15 -12 11 -17 12 -20 2 -4 -9 -8 -8 -17 3 -9
11 -13 12 -17 3 -2 -7 -11 -13 -19 -13 -8 0 -19 -11 -24 -24 -6 -16 -20 -27
-40 -31 -29 -6 -31 -10 -26 -35 7 -35 -14 -55 -49 -46 -17 4 -31 1 -41 -9 -20
-19 -53 -19 -60 0 -4 8 -10 13 -15 10 -4 -3 -23 1 -42 8 -25 11 -37 25 -51 61
-17 44 -37 58 -51 35 -8 -12 -94 -4 -138 13 -22 9 -31 8 -37 -2 -5 -9 -20 -11
-44 -7 -20 3 -36 2 -36 -4 0 -5 -5 -9 -12 -9 -9 0 -9 3 0 12 18 18 15 28 -9
28 -11 0 -28 7 -36 16 -13 12 -18 13 -24 3 -6 -10 -9 -9 -13 4 -17 50 -19 53
-23 34 -3 -12 -11 -16 -22 -12 -9 3 -26 -2 -37 -10 -10 -8 -29 -15 -41 -15
-35 0 -65 -36 -61 -73 3 -28 6 -32 31 -30 23 2 30 -3 38 -26 6 -16 24 -34 44
-44 19 -9 36 -22 36 -29 7 -80 -57 -115 -117 -63 -28 24 -60 26 -74 4 -7 -10
-80 11 -80 23 0 4 -6 8 -14 8 -9 0 -21 21 -30 54 -19 63 -20 96 -5 96 7 0 9
20 4 63 -14 139 -11 182 18 226 15 22 27 48 27 58 0 9 5 31 12 49 10 28 8 37
-15 77 -25 43 -26 50 -24 182 1 100 5 139 15 143 6 2 12 12 12 22 0 29 31 75
68 100 34 24 37 37 17 83 -5 12 -3 17 9 17 9 0 16 5 16 10 0 6 -40 10 -99 10
l-99 0 -4 -117z m1703 -33 c27 -15 26 -88 -1 -120 -19 -22 -19 -22 -44 -3 -37
30 -76 79 -76 97 0 16 10 20 43 17 9 -1 17 3 17 8 0 14 36 14 61 1z m179 -187
c44 -74 36 -180 -11 -150 -10 6 -19 17 -19 24 0 18 -18 16 -22 -2 -5 -24 -51
6 -62 40 -4 17 -12 38 -17 47 -18 35 -10 57 24 67 64 18 83 14 107 -26z m-265
-11 c-8 -8 -25 10 -19 20 4 6 9 5 15 -3 4 -7 6 -15 4 -17z m-35 -37 c0 -8 -7
-15 -15 -15 -8 0 -15 7 -15 15 0 8 7 15 15 15 8 0 15 -7 15 -15z m-6 -40 c3
-9 0 -15 -9 -15 -16 0 -27 14 -18 24 10 10 21 7 27 -9z m216 -276 c0 -5 -9 -9
-20 -9 -11 0 -19 -3 -19 -7 4 -22 -3 -25 -16 -7 -20 27 -19 32 13 36 31 4 42
1 42 -13z m20 -29 c0 -5 -4 -10 -10 -10 -5 0 -10 5 -10 10 0 6 5 10 10 10 6 0
10 -4 10 -10z m170 -80 c-10 -6 -11 -10 -2 -10 6 0 12 -4 12 -10 0 -11 -53
-14 -63 -4 -11 11 18 33 43 33 20 1 22 -1 10 -9z m1010 -76 c0 -6 -6 -17 -14
-23 -14 -12 -17 -84 -3 -97 4 -4 7 -3 7 3 0 13 38 24 45 13 3 -5 0 -12 -6 -16
-8 -5 -8 -9 1 -14 20 -12 -7 -54 -28 -43 -29 14 -143 5 -163 -13 -23 -21 -55
-14 -51 11 2 11 4 42 5 69 2 43 7 55 44 93 24 24 43 47 43 51 0 5 5 13 11 19
13 13 109 -34 109 -53z m-430 16 c0 -5 -2 -10 -4 -10 -3 0 -8 5 -11 10 -3 6
-1 10 4 10 6 0 11 -4 11 -10z m-2722 -86 c-3 -3 9 -21 27 -41 23 -25 39 -58
53 -111 l21 -76 -29 -55 c-16 -31 -32 -74 -36 -96 -9 -54 -21 -69 -41 -50 -8
8 -28 15 -44 15 -16 0 -29 5 -29 10 0 6 -5 10 -11 10 -16 0 -38 31 -39 53 0 9
-4 17 -10 17 -5 0 -10 9 -10 19 0 11 -5 21 -12 23 -7 3 -14 32 -16 71 -4 61
-2 69 29 117 23 35 49 60 79 76 41 21 82 32 68 18z m1882 -83 c0 -5 14 -11 30
-15 20 -4 34 -14 40 -31 5 -14 17 -28 25 -31 8 -4 15 -12 15 -19 0 -7 4 -15
10 -17 5 -1 11 -14 12 -28 2 -14 5 -27 8 -30 29 -29 63 -107 55 -127 -5 -10
-7 -21 -7 -25 1 -5 -20 -8 -48 -8 -55 0 -90 26 -90 67 0 13 -4 23 -9 23 -5 0
-12 8 -16 19 -6 21 -56 77 -64 73 -3 -1 -14 5 -24 13 -14 12 -17 27 -15 68 3
43 7 53 28 64 29 15 50 17 50 4z m-773 -186 c3 -9 3 -18 0 -21 -7 -8 -87 18
-87 28 0 15 80 9 87 -7z m1863 -90 c0 -8 -7 -15 -15 -15 -26 0 -18 20 13 29 1
1 2 -6 2 -14z m-2235 -44 c8 -20 -14 -39 -53 -47 -22 -4 -32 -3 -32 5 0 7 -4
9 -10 6 -14 -9 -13 8 2 23 9 9 9 12 -2 13 -8 1 -4 4 10 9 37 11 79 7 85 -9z
m125 -22 c7 -12 20 -20 33 -19 41 4 45 0 52 -41 10 -59 -9 -96 -61 -119 -53
-25 -57 -25 -78 -1 -16 18 -17 28 -6 110 11 77 16 91 31 91 10 0 23 -9 29 -21z
m208 -21 c2 -9 -3 -22 -11 -29 -7 -8 -12 -20 -9 -27 2 -8 -8 -12 -32 -12 -45
0 -46 14 -4 57 33 34 51 38 56 11z m943 -175 c0 -16 1 -16 8 0 6 17 8 17 20 3
7 -9 20 -16 27 -16 8 0 14 -4 14 -10 0 -5 6 -10 14 -10 9 0 14 -11 14 -34 0
-33 -1 -34 -46 -39 -50 -5 -75 0 -66 14 3 5 2 15 -3 22 -9 14 -13 68 -6 80 8
13 23 7 24 -10z m-253 -75 c9 -12 17 -41 17 -63 1 -33 4 -39 18 -37 17 3 17 1
3 -26 -8 -16 -13 -32 -10 -35 3 -3 1 -21 -4 -41 -6 -20 -7 -34 -2 -31 7 4 77
-26 140 -61 25 -13 25 -13 28 27 2 23 1 48 -2 55 -3 8 -5 17 -5 20 0 4 -5 10
-11 14 -21 13 9 68 40 73 14 3 28 0 32 -6 4 -7 8 -7 8 -2 0 6 10 -5 21 -24 20
-34 20 -35 3 -49 -18 -13 -18 -14 4 -7 30 9 29 -9 -3 -41 -38 -38 -45 -58 -45
-133 0 -59 -4 -74 -25 -99 -15 -18 -33 -29 -47 -28 -13 1 -33 -6 -44 -17 -14
-12 -24 -15 -29 -8 -3 6 -1 11 4 11 6 0 11 7 11 15 0 21 -17 19 -23 -4 -2 -11
7 -30 23 -49 l27 -31 13 24 c14 27 33 35 24 10 -4 -8 -3 -15 0 -15 4 0 11 10
16 23 7 17 9 18 9 5 1 -11 9 -18 20 -18 11 0 22 -6 25 -12 4 -10 7 -10 12 -1
8 17 46 -6 117 -72 53 -50 64 -56 90 -51 16 3 42 6 58 6 17 0 37 9 46 20 10
11 21 20 25 20 4 0 27 -18 49 -40 37 -35 40 -42 28 -58 -20 -25 -41 -41 -66
-52 -13 -5 -23 -16 -23 -25 0 -8 -11 -17 -24 -21 -17 -4 -27 -15 -31 -36 -5
-23 -9 -27 -16 -17 -7 12 -9 11 -9 -1 0 -8 -11 -24 -25 -34 -18 -13 -25 -28
-25 -51 0 -18 -3 -47 -6 -64 -6 -26 -10 -30 -30 -25 -19 5 -23 3 -18 -10 3 -9
1 -16 -5 -16 -6 0 -14 12 -17 28 -13 56 -94 240 -135 307 -51 85 -92 139 -159
212 -28 31 -49 61 -46 68 3 8 -2 19 -10 25 -8 7 -14 20 -14 29 0 9 -6 23 -12
30 -9 8 -13 46 -13 114 0 67 -4 101 -11 100 -15 -3 -89 138 -85 162 4 26 20
45 46 55 23 8 48 -6 73 -42z m157 -122 c-11 -8 -23 -12 -28 -9 -13 8 3 23 26
23 20 0 20 0 2 -14z m-705 -141 c150 -16 202 -27 298 -62 62 -22 72 -29 72
-50 0 -23 -1 -23 -29 -8 -17 8 -32 11 -36 6 -3 -5 4 -13 16 -16 11 -4 18 -9
16 -11 -2 -3 -16 1 -30 7 l-27 12 22 19 c13 11 16 18 8 18 -8 0 -27 -12 -42
-27 -15 -15 -28 -22 -28 -15 0 6 10 20 22 32 l22 20 -33 -11 c-25 -9 -46 -9
-88 1 -75 16 -77 7 -3 -14 33 -9 60 -19 60 -22 0 -7 -53 4 -113 23 -38 12 -51
12 -62 3 -18 -15 -20 1 -2 20 10 12 9 12 -5 1 -19 -14 -128 -6 -128 10 0 15
-17 10 -24 -7 -3 -8 -2 -12 4 -9 6 3 10 1 10 -6 0 -8 -16 -9 -56 -4 -34 4 -54
3 -51 -2 4 -6 0 -10 -8 -10 -17 0 -31 35 -18 47 4 4 17 11 28 14 11 3 5 4 -12
2 -24 -2 -33 2 -34 13 -1 29 -18 -22 -18 -56 -1 -30 -4 -33 -34 -33 -18 0 -39
6 -47 13 -12 10 -12 9 -1 -6 17 -21 17 -21 -49 -50 -69 -31 -120 -42 -120 -28
0 6 13 11 29 11 16 0 44 7 62 15 46 19 10 20 -55 0 -39 -12 -51 -12 -57 -3 -4
7 -11 9 -15 6 -3 -4 1 -14 10 -23 9 -9 16 -22 16 -28 0 -8 -3 -8 -8 -2 -11 17
-36 12 -75 -15 -41 -28 -49 -50 -14 -44 21 4 21 4 -2 -6 -28 -12 -26 -13 -35
24 -6 24 -4 27 9 22 9 -3 13 -2 10 3 -3 5 13 20 35 32 22 12 38 24 35 27 -10
10 20 30 32 20 11 -9 53 9 53 24 0 4 27 12 60 19 33 6 63 15 65 19 3 5 -5 6
-17 3 -19 -4 -20 -3 -8 6 12 9 8 10 -15 5 -45 -10 -124 -47 -119 -56 8 -12
-11 -9 -24 4 -9 9 -12 9 -12 -1 0 -8 -6 -11 -16 -7 -9 3 -37 -6 -64 -21 -42
-24 -46 -29 -32 -39 9 -7 13 -16 9 -21 -5 -4 -17 3 -28 16 -10 13 -19 19 -19
13 0 -12 -58 -34 -64 -23 -3 4 12 15 32 25 20 10 66 33 102 51 93 46 164 71
255 90 44 9 94 22 110 30 64 28 104 30 275 10z m-253 -102 c-3 -10 -5 -4 -5
12 0 17 2 24 5 18 2 -7 2 -21 0 -30z m243 6 c24 -1 24 -1 -4 -9 -21 -7 -35 -5
-50 7 -21 15 -21 15 4 9 14 -3 36 -6 50 -7z m419 -6 c-1 -16 -18 -48 -18 -36
-1 6 -4 18 -7 27 -4 11 -1 16 10 16 9 0 16 -3 15 -7z m-309 -33 c20 -6 21 -8
5 -8 -11 0 -29 3 -40 8 -25 11 1 11 35 0z m-690 -15 c-6 -8 -20 -17 -31 -20
-10 -4 -19 -13 -19 -22 0 -13 -3 -13 -15 -3 -14 11 -11 16 22 36 44 27 61 31
43 9z m1104 -34 c-3 -3 -15 6 -27 18 l-22 24 27 -19 c14 -10 24 -21 22 -23z
m-1211 -40 c-2 -6 0 -11 5 -11 4 0 8 -11 8 -25 1 -14 -2 -25 -8 -25 -5 0 -6
-9 -3 -20 3 -11 4 -20 2 -20 -9 0 -38 101 -31 111 8 13 30 5 27 -10z m142 0
c3 -5 0 -13 -6 -17 -7 -4 -9 -3 -5 4 3 5 0 13 -6 15 -9 4 -10 6 -1 6 6 1 14
-3 18 -8z m416 -10 c-20 -13 4 -24 35 -17 17 5 23 3 19 -4 -8 -12 -55 -13 -74
-1 -17 11 -6 31 17 31 13 0 14 -2 3 -9z m-703 -68 c-36 -38 -70 -79 -77 -91
-7 -13 -15 -21 -18 -18 -3 3 1 16 10 30 26 38 128 146 140 146 6 0 -19 -30
-55 -67z m1522 42 c0 -8 -4 -15 -10 -15 -5 0 -7 7 -4 15 4 8 8 15 10 15 2 0 4
-7 4 -15z m-1476 -27 c-34 -39 -75 -78 -81 -78 -4 0 15 23 42 50 50 51 73 68
39 28z m56 -29 c0 -9 -16 -33 -35 -53 -19 -21 -32 -42 -29 -48 4 -6 3 -8 -3
-5 -13 8 -50 -19 -40 -29 4 -5 12 -2 16 5 5 7 13 11 18 8 5 -4 23 11 39 33 16
22 35 42 42 45 8 3 0 -12 -17 -32 -27 -35 -86 -101 -68 -79 14 19 7 29 -11 13
-16 -15 -19 -15 -30 4 -11 18 -10 23 12 40 15 11 26 25 26 32 0 6 -13 -2 -30
-18 -53 -51 -32 -6 25 54 30 32 55 64 55 72 1 20 30 -20 30 -42z m24 -4 c4
-19 3 -25 -3 -15 -4 8 -11 29 -15 45 -4 19 -3 25 3 15 4 -8 11 -28 15 -45z
m176 41 c0 -2 -8 -10 -17 -17 -16 -13 -17 -12 -4 4 13 16 21 21 21 13z m-340
-106 c0 -5 -5 -10 -11 -10 -5 0 -7 5 -4 10 3 6 8 10 11 10 2 0 4 -4 4 -10z
m-1 -58 c11 -26 8 -34 -25 -85 -20 -31 -41 -57 -45 -57 -13 0 -11 14 4 30 6 8
2 6 -10 -4 -22 -18 -22 -18 -3 -39 11 -11 18 -23 15 -25 -7 -8 -45 39 -45 55
0 8 19 42 42 76 24 34 41 68 40 76 -5 22 15 3 27 -27z m846 12 c46 -13 54 -19
57 -42 2 -18 8 -27 20 -26 10 1 15 -2 12 -7 -3 -5 2 -9 10 -9 9 0 16 -4 16
-10 0 -5 -9 -10 -20 -10 -12 0 -20 -7 -20 -17 0 -15 2 -16 10 -3 8 13 10 12
10 -2 0 -10 -7 -18 -15 -18 -9 0 -15 -9 -15 -24 0 -30 -35 -81 -82 -119 l-37
-30 -44 27 c-55 31 -97 80 -96 109 0 18 3 17 14 -9 8 -18 33 -46 57 -65 24
-18 37 -26 31 -19 -18 20 -16 47 5 59 14 9 11 11 -18 11 -19 1 -29 4 -22 7 25
10 82 -8 93 -28 8 -17 7 -23 -8 -35 -12 -9 -13 -13 -5 -14 40 -1 94 67 90 114
-1 14 -5 26 -9 26 -13 0 -17 39 -4 43 7 3 10 17 8 34 -4 23 -13 32 -41 43 -52
19 -118 14 -159 -11 -31 -20 -35 -26 -30 -55 4 -23 2 -31 -6 -28 -7 2 -13 18
-14 34 -2 32 25 58 82 78 43 15 69 14 130 -4z m-906 -26 c-31 -45 -33 -46 -24
-19 5 18 4 22 -5 16 -9 -5 -11 -4 -6 4 4 6 11 9 16 6 4 -3 13 2 20 10 23 27
22 16 -1 -17z m1158 16 c-3 -3 -12 -4 -19 -1 -8 3 -5 6 6 6 11 1 17 -2 13 -5z
m31 -16 c-3 -7 -14 -14 -26 -14 -20 -2 -20 -1 -2 3 11 2 18 9 15 14 -4 5 -1 9
5 9 7 0 10 -6 8 -12z m-328 -13 c-7 -9 -10 -18 -7 -22 4 -3 1 -13 -6 -21 -8
-11 -8 -14 0 -9 6 4 14 3 18 -3 4 -6 -4 -10 -18 -10 -18 0 -27 7 -31 26 -4 15
-5 29 -1 32 3 3 5 0 5 -6 0 -7 9 -3 20 8 23 23 38 27 20 5z m35 5 c3 -5 1 -10
-4 -10 -6 0 -11 5 -11 10 0 6 2 10 4 10 3 0 8 -4 11 -10z m325 6 c0 -3 -4 -8
-10 -11 -5 -3 -10 -1 -10 4 0 6 5 11 10 11 6 0 10 -2 10 -4z m26 -21 c-17 -13
-12 -45 8 -45 6 0 4 -5 -4 -10 -13 -9 -13 -10 0 -10 12 0 12 -2 2 -9 -10 -6
-4 -12 20 -24 18 -9 28 -17 21 -17 -17 0 -73 34 -73 45 0 6 -5 3 -11 -5 -8
-11 -9 -9 -4 10 13 48 37 90 48 83 6 -4 4 -11 -7 -18z m-316 -20 c0 -5 -5 -3
-10 5 -5 8 -10 20 -10 25 0 6 5 3 10 -5 5 -8 10 -19 10 -25z m-170 0 c0 -14
-2 -25 -4 -25 -2 0 -6 11 -8 25 -3 14 -1 25 3 25 5 0 9 -11 9 -25z m32 -4 c2
-17 1 -28 -4 -25 -8 5 -12 54 -4 54 2 0 6 -13 8 -29z m664 4 c16 -14 33 -25
38 -25 5 0 7 -2 4 -5 -9 -9 -53 15 -66 36 -16 25 -11 24 24 -6z m-721 5 c3 -5
1 -10 -4 -10 -6 0 -11 5 -11 10 0 6 2 10 4 10 3 0 8 -4 11 -10z m162 -12 c-3
-8 -6 -5 -6 6 -1 11 2 17 5 13 3 -3 4 -12 1 -19z m153 13 c0 -6 -5 -13 -12
-17 -6 -4 -8 -3 -4 4 3 5 0 13 -6 15 -8 3 -6 6 5 6 9 1 17 -3 17 -8z m125 -2
c11 -16 1 -19 -13 -3 -7 8 -8 14 -3 14 5 0 13 -5 16 -11z m27 -14 c-2 -15 -11
-25 -21 -25 -10 0 -12 3 -5 8 6 4 13 15 17 25 9 25 15 21 9 -8z m158 21 c0 -2
-7 -7 -16 -10 -8 -3 -12 -2 -9 4 6 10 25 14 25 6z m49 -13 c6 -10 11 -14 11
-10 0 4 12 -4 28 -18 15 -14 35 -24 45 -21 18 4 15 -5 -12 -38 -13 -16 -13
-18 -1 -11 8 4 23 15 33 23 16 15 17 14 11 -3 -5 -12 -4 -16 4 -11 7 4 10 2 7
-6 -3 -7 11 -35 30 -62 35 -49 45 -73 25 -61 -5 3 -10 -3 -10 -15 0 -12 3 -19
8 -17 4 3 7 -5 7 -18 0 -13 -3 -21 -6 -19 -10 6 -33 -25 -25 -33 3 -3 6 -1 6
5 0 7 5 12 10 12 6 0 10 -15 10 -33 0 -37 24 -77 46 -77 8 0 12 -5 9 -11 -5
-7 -16 -5 -33 6 l-27 16 22 -19 22 -19 -22 -22 c-12 -11 -16 -21 -10 -21 6 0
25 16 42 35 40 46 40 31 0 -18 -24 -29 -38 -37 -63 -37 -33 0 -49 13 -93 77
l-22 32 26 8 c15 5 23 12 17 15 -5 4 -36 -11 -68 -33 -56 -38 -57 -39 -27 -39
18 0 30 5 29 11 -6 26 21 17 30 -10 12 -35 4 -48 -15 -23 -13 16 -14 16 -10
-3 2 -14 10 -19 25 -18 12 2 22 -2 22 -8 0 -5 4 -8 8 -5 4 2 14 0 22 -5 11 -7
-6 -9 -53 -6 -38 3 -73 9 -78 14 -6 6 -1 9 13 9 13 -1 26 -5 30 -11 5 -7 8 -6
8 1 0 5 -7 19 -15 30 -15 19 -15 19 -8 -1 6 -19 5 -19 -13 -4 -10 9 -23 15
-29 13 -7 -3 -9 71 -7 211 3 210 3 215 22 205 14 -7 20 -7 20 0 0 5 -7 10 -15
10 -9 0 -15 9 -15 25 0 29 15 33 29 8z m92 0 c13 -16 12 -17 -3 -4 -10 7 -18
15 -18 17 0 8 8 3 21 -13z m-1541 -7 c0 -3 -4 -8 -10 -11 -5 -3 -10 -1 -10 4
0 6 5 11 10 11 6 0 10 -2 10 -4z m1331 -14 c-7 -2 -18 1 -23 6 -8 8 -4 9 13 5
13 -4 18 -8 10 -11z m-1240 -44 c-11 -18 -21 -29 -21 -25 0 13 33 67 38 62 3
-2 -5 -19 -17 -37z m1303 -58 c-2 -186 -4 -223 -11 -217 -3 4 -6 65 -6 137 0
71 -4 130 -8 130 -5 0 -9 7 -9 15 0 9 6 12 18 9 14 -5 14 -3 -3 11 l-20 17 20
-4 c18 -3 20 -11 19 -98z m-454 80 c0 -5 -9 -10 -20 -10 -12 0 -20 -7 -21 -17
0 -11 -3 -13 -6 -5 -7 18 -23 15 -24 -5 0 -15 -2 -15 -9 2 -5 11 -9 14 -9 8
-1 -7 -9 -13 -18 -13 -15 0 -16 2 -3 10 13 8 13 10 -2 10 -9 0 -19 -6 -21 -12
-3 -8 -6 -6 -6 5 -1 14 8 17 47 18 26 0 56 4 67 9 11 5 21 9 23 9 1 1 2 -3 2
-9z m399 -12 c0 -16 -2 -18 -6 -8 -3 8 -11 18 -17 22 -7 5 -4 8 7 8 11 0 17
-7 16 -22z m-549 5 c0 -5 -5 -15 -10 -23 -7 -12 -9 -10 -7 8 1 19 17 33 17 15z
m-69 -22 c-9 -6 -10 -11 -2 -15 6 -4 15 3 20 16 7 15 10 17 10 7 1 -27 -24
-42 -40 -23 -10 13 -10 17 1 24 8 5 17 7 19 4 3 -3 -1 -9 -8 -13z m-38 2 c-7
-2 -19 -2 -25 0 -7 3 -2 5 12 5 14 0 19 -2 13 -5z m925 -10 c5 -10 7 -25 3
-34 -5 -14 -8 -15 -19 -3 -11 12 -10 14 4 14 16 0 16 2 -1 20 -10 11 -13 20
-7 20 6 0 15 -8 20 -17z m646 -9 c45 -45 51 -86 18 -119 -29 -29 -38 -30 -92
-9 -32 13 -39 20 -35 35 4 12 1 21 -9 25 -9 3 -14 10 -11 14 3 5 -1 12 -8 17
-7 4 -17 17 -20 28 -5 15 0 12 21 -10 l28 -31 33 33 c38 37 52 40 75 17z
m-2254 -30 c22 -34 22 -36 5 -80 -9 -24 -21 -41 -27 -38 -6 4 -6 9 -1 13 14
10 36 71 29 79 -4 4 -13 -1 -20 -10 -7 -10 -16 -15 -19 -11 -4 3 -7 -2 -7 -12
0 -10 -3 -16 -6 -12 -3 3 0 23 7 44 7 21 12 44 11 51 -5 21 6 13 28 -24z m948
-1 c-10 -2 -28 -2 -40 0 -13 2 -5 4 17 4 22 1 32 -1 23 -4z m348 -40 c-6 -6
-86 19 -86 27 0 4 20 1 45 -8 25 -8 44 -17 41 -19z m344 -8 c0 -5 -5 -3 -10 5
-5 8 -10 20 -10 25 0 6 5 3 10 -5 5 -8 10 -19 10 -25z m-273 -127 c-3 -8 -6
-5 -6 6 -1 11 2 17 5 13 3 -3 4 -12 1 -19z m-2286 2 c10 -6 19 -17 19 -25 0
-35 59 -114 87 -115 18 0 20 -11 14 -69 l-6 -54 -44 -3 c-32 -2 -52 2 -72 17
-16 11 -59 31 -96 43 -38 13 -67 28 -66 34 1 5 -4 16 -12 22 -21 18 -19 41 11
94 17 30 32 46 45 46 10 0 19 5 19 10 0 13 76 13 101 0z m3007 -10 c22 -21 29
-64 13 -89 -5 -7 -29 -14 -54 -16 -25 -2 -50 -6 -56 -9 -7 -5 -11 3 -11 20 0
16 -10 36 -25 50 -14 13 -25 29 -25 36 0 9 3 9 12 0 15 -15 32 -16 23 -2 -4 6
5 10 19 10 14 0 26 5 26 10 0 18 56 11 78 -10z m-388 0 c-8 -5 -8 -15 0 -34
14 -37 12 -45 -5 -22 -8 11 -15 28 -15 38 0 10 -4 18 -10 18 -5 0 -10 -10 -10
-22 0 -16 -3 -19 -11 -11 -20 20 -3 42 31 41 17 -1 26 -4 20 -8z m-814 -55
c-9 -9 -16 -13 -16 -8 0 12 22 34 28 28 2 -2 -3 -11 -12 -20z m79 5 c12 -14
15 -27 10 -47 -5 -21 -8 -24 -16 -12 -5 7 -9 24 -9 36 0 12 -8 27 -17 32 -15
9 -16 10 -2 11 9 0 24 -9 34 -20z m767 -22 c-6 -6 -7 0 -4 19 5 21 7 23 10 9
2 -10 0 -22 -6 -28z m-346 -13 c0 -18 -3 -32 -8 -29 -13 8 -8 64 6 64 1 0 1
-16 2 -35z m549 25 c3 -5 1 -10 -4 -10 -6 0 -11 5 -11 10 0 6 2 10 4 10 3 0 8
-4 11 -10z m-524 -167 c-9 -15 -10 -12 -10 17 0 29 1 32 10 18 7 -12 7 -24 0
-35z m-1644 5 c-3 -8 -6 -5 -6 6 -1 11 2 17 5 13 3 -3 4 -12 1 -19z m1711 -10
c19 -19 14 -33 -6 -15 -14 13 -21 14 -30 5 -7 -7 -12 -8 -12 -2 0 25 28 32 48
12z m162 -8 c0 -5 -2 -10 -4 -10 -3 0 -8 5 -11 10 -3 6 -1 10 4 10 6 0 11 -4
11 -10z m181 -23 c-8 -8 -11 -7 -11 4 0 9 3 19 7 23 4 4 9 2 11 -4 3 -7 -1
-17 -7 -23z m-614 -2 c-43 -12 -55 -12 -92 -4 -15 3 65 16 105 17 33 0 32 -1
-13 -13z m-207 -17 c0 -18 2 -20 10 -8 5 8 12 11 17 7 8 -9 -15 -27 -34 -27
-7 0 -13 11 -13 25 0 14 5 25 10 25 6 0 10 -10 10 -22z m464 -17 c-6 -6 -34
20 -34 32 0 6 8 2 19 -9 10 -10 17 -21 15 -23z m-399 9 c3 -6 -1 -7 -9 -4 -18
7 -21 14 -7 14 6 0 13 -4 16 -10z m789 -22 c7 -5 5 -8 -5 -8 -18 0 -32 24 -21
35 4 3 8 0 11 -7 2 -7 9 -16 15 -20z m106 -13 c0 -7 5 -15 10 -17 6 -2 12 -14
12 -28 1 -14 10 -36 20 -49 10 -13 18 -28 18 -33 0 -6 9 -21 20 -35 30 -38 25
-60 -26 -120 -38 -44 -52 -53 -73 -51 -25 3 -26 5 -35 100 -8 95 -8 97 18 131
14 18 26 45 25 58 -1 23 -1 23 -11 -3 -17 -48 -25 -30 -9 21 13 45 31 60 31
26z m-55 -3 c-3 -3 -11 0 -18 7 -9 10 -8 11 6 5 10 -3 15 -9 12 -12z m-35 -12
c0 -5 -2 -10 -4 -10 -3 0 -8 5 -11 10 -3 6 -1 10 4 10 6 0 11 -4 11 -10z
m-135 -106 c-13 -19 -27 -44 -30 -55 -4 -10 -12 -19 -20 -19 -23 0 38 109 62
110 7 0 3 -15 -12 -36z m525 -5 c0 -29 -39 -117 -56 -123 -23 -9 -72 14 -78
37 -10 36 -7 53 13 78 15 19 29 24 70 26 45 2 51 0 51 -18z m-2385 -122 c8
-20 15 -43 15 -50 -1 -13 -27 31 -32 54 -2 8 -11 20 -20 27 -25 18 -23 35 2
20 11 -7 26 -30 35 -51z m1110 43 c4 -6 -11 -10 -39 -10 -26 0 -46 -5 -49 -12
-4 -8 -6 -7 -6 4 -1 24 81 40 94 18z m35 -12 c0 -19 -2 -20 -10 -8 -13 19 -13
30 0 30 6 0 10 -10 10 -22z m710 -56 c0 -20 -5 -44 -10 -52 -6 -10 -8 3 -4 40
4 40 3 51 -5 40 -6 -8 -11 -10 -11 -4 0 6 3 14 6 17 13 13 24 -5 24 -41z
m-770 6 c0 -5 -13 -8 -30 -8 -16 0 -30 3 -30 8 0 4 14 7 30 7 17 0 30 -3 30
-7z m47 6 c-3 -3 -12 -4 -19 -1 -8 3 -5 6 6 6 11 1 17 -2 13 -5z m1508 -154
c0 -8 12 -31 27 -50 20 -26 26 -43 21 -60 -8 -36 -40 -67 -74 -74 -16 -3 -32
-14 -36 -23 -4 -10 -15 -24 -26 -32 -13 -10 -17 -21 -14 -40 4 -17 -1 -35 -13
-51 -18 -23 -19 -24 -38 -7 -10 9 -23 17 -29 17 -6 0 -13 6 -16 13 -9 23 15
111 40 144 12 17 23 41 23 52 0 38 20 71 62 101 43 32 73 36 73 10z m-535 -60
c0 -5 -5 -10 -11 -10 -5 0 -8 -4 -4 -9 3 -6 -1 -43 -10 -83 -8 -40 -15 -100
-15 -133 0 -59 1 -60 28 -61 40 -1 86 -14 78 -21 -3 -3 4 -11 16 -17 26 -13
37 -46 16 -46 -8 0 -25 -23 -37 -50 -19 -41 -27 -50 -42 -45 -16 5 -15 2 6
-19 14 -14 30 -26 35 -26 6 0 10 -5 10 -11 0 -6 6 -9 13 -6 8 3 13 -6 14 -26
2 -29 2 -29 -17 -12 -11 10 -20 22 -20 27 0 15 -52 58 -71 58 -10 0 -21 5 -24
10 -8 14 -52 13 -61 -1 -4 -7 0 -9 14 -5 23 8 83 -22 90 -44 4 -11 0 -11 -15
2 -11 11 -34 17 -56 16 -45 -2 -51 4 -43 36 5 19 11 24 24 19 14 -6 15 -4 4 9
-11 13 -9 34 8 119 13 65 18 119 14 145 -4 27 -2 44 6 49 8 5 8 10 -1 21 -9
11 -8 14 5 14 9 0 16 8 16 20 0 11 -4 20 -10 20 -5 0 -10 5 -10 11 0 5 5 7 12
3 8 -5 9 -2 5 11 -4 9 -2 24 4 31 13 16 29 18 29 4z m12 -40 c-2 -17 -8 -32
-12 -35 -7 -5 -5 18 6 53 7 23 11 12 6 -18z m-232 -71 c-19 -15 -41 -29 -49
-29 -17 0 -16 1 34 38 50 37 62 30 15 -9z m-2630 14 c0 -9 3 -13 7 -10 3 4 12
2 20 -4 16 -14 8 -72 -13 -103 -13 -19 -13 -19 -20 0 -4 10 -14 23 -21 27 -11
7 -11 12 -3 22 8 10 7 15 -4 22 -21 12 -9 63 15 63 11 0 19 -7 19 -17z m2777
-35 c-3 -8 -6 -5 -6 6 -1 11 2 17 5 13 3 -3 4 -12 1 -19z m-10 -50 c-3 -8 -6
-5 -6 6 -1 11 2 17 5 13 3 -3 4 -12 1 -19z m-252 -38 c-18 -20 -18 -21 3 -27
22 -5 21 -6 -10 -42 -17 -20 -43 -42 -57 -49 -25 -13 -25 -12 3 13 24 22 26
29 15 36 -19 12 -29 11 -29 -3 0 -6 -3 -8 -7 -4 -5 4 15 28 42 52 54 47 69 56
40 24z m-438 -141 c39 -31 78 -59 85 -62 7 -2 10 -7 7 -11 -7 -7 -297 204
-298 217 -1 10 106 -65 206 -144z m690 119 c-3 -8 -6 -5 -6 6 -1 11 2 17 5 13
3 -3 4 -12 1 -19z m0 -40 c-3 -8 -6 -5 -6 6 -1 11 2 17 5 13 3 -3 4 -12 1 -19z
m-237 -17 c0 -5 -9 -19 -21 -32 l-20 -24 17 33 c19 33 24 38 24 23z m554 -30
c30 -12 26 -46 -7 -55 -26 -6 -33 0 -42 37 -8 30 4 34 49 18z m-624 -75 c0 -2
-8 -10 -17 -17 -16 -13 -17 -12 -4 4 13 16 21 21 21 13z m-427 -88 c37 -22 67
-42 67 -45 0 -6 -171 86 -185 99 -20 19 52 -14 118 -54z m-99 -16 c0 -20 4
-43 10 -51 9 -11 8 -13 -4 -9 -16 5 -28 98 -13 98 4 0 8 -17 7 -38z m264 -52
c29 -11 61 -20 72 -20 11 0 20 -7 20 -15 0 -12 -18 -8 -87 17 -49 17 -90 33
-92 34 -13 12 42 1 87 -16z m686 4 c3 -8 2 -12 -4 -9 -6 3 -10 1 -10 -4 0 -6
7 -11 15 -11 8 0 15 -4 15 -8 0 -4 -8 -8 -19 -8 -17 0 -19 9 -12 49 2 12 8 8
15 -9z m83 -31 c-3 -10 -5 -4 -5 12 0 17 2 24 5 18 2 -7 2 -21 0 -30z m-230
-25 c-3 -8 -6 -5 -6 6 -1 11 2 17 5 13 3 -3 4 -12 1 -19z m-239 -17 c3 -8 -1
-12 -9 -9 -7 2 -15 10 -17 17 -3 8 1 12 9 9 7 -2 15 -10 17 -17z m406 3 c9 -3
16 -13 16 -22 0 -14 -1 -14 -12 0 -7 9 -20 18 -28 21 -8 3 -10 6 -3 6 6 1 18
-2 27 -5z m-169 -15 c11 -16 1 -19 -13 -3 -7 8 -8 14 -3 14 5 0 13 -5 16 -11z
m36 -6 c13 -16 12 -17 -3 -4 -10 7 -18 15 -18 17 0 8 8 3 21 -13z m199 -3 c0
-5 -5 -10 -11 -10 -5 0 -7 5 -4 10 3 6 8 10 11 10 2 0 4 -4 4 -10z m-460 -30
c0 -16 -3 -30 -7 -30 -32 1 -42 60 -11 60 13 0 18 -8 18 -30z m315 -24 c17
-10 38 -29 48 -42 22 -30 15 -31 -12 -3 -20 22 -47 40 -88 58 -13 6 -23 15
-23 20 0 10 15 3 75 -33z m-298 -43 c-3 -10 -5 -2 -5 17 0 19 2 27 5 18 2 -10
2 -26 0 -35z m-189 -9 c-12 -24 -26 -44 -31 -44 -5 0 -3 10 5 23 8 12 13 31
12 42 -1 14 5 21 17 22 17 2 17 -1 -3 -43z m620 -19 c-3 -3 -9 2 -12 12 -6 14
-5 15 5 6 7 -7 10 -15 7 -18z m-398 -27 c0 -19 -2 -20 -10 -8 -13 19 -13 30 0
30 6 0 10 -10 10 -22z m747 -135 c-3 -10 -5 -4 -5 12 0 17 2 24 5 18 2 -7 2
-21 0 -30z m-767 -8 c0 -8 -4 -15 -10 -15 -5 0 -10 7 -10 15 0 8 5 15 10 15 6
0 10 -7 10 -15z m705 -4 c3 -5 2 -12 -3 -15 -5 -3 -9 1 -9 9 0 17 3 19 12 6z
m40 -11 c3 -6 -1 -7 -9 -4 -18 7 -21 14 -7 14 6 0 13 -4 16 -10z m-876 -26 c6
-5 -5 -16 -26 -26 -29 -14 -34 -14 -29 -1 3 8 6 21 6 29 0 15 34 14 49 -2z
m64 -8 c18 -14 25 -42 7 -31 -5 3 -10 1 -10 -6 0 -10 -3 -10 -12 0 -11 11 -10
14 0 18 6 3 10 9 7 13 -3 5 -12 7 -20 3 -8 -3 -15 0 -15 6 0 15 21 13 43 -3z
m597 -21 c0 -5 -5 -3 -10 5 -5 8 -10 20 -10 25 0 6 5 3 10 -5 5 -8 10 -19 10
-25z m269 -25 c0 -9 -4 -8 -9 5 -5 11 -9 27 -9 35 0 9 4 8 9 -5 5 -11 9 -27 9
-35z m-128 -25 c26 -30 32 -40 14 -25 -38 33 -64 63 -65 74 0 5 1 7 3 5 2 -2
23 -26 48 -54z m-142 -25 c0 -23 -15 7 -22 45 l-6 30 14 -30 c8 -16 14 -37 14
-45z m238 64 c-3 -3 -12 -4 -19 -1 -8 3 -5 6 6 6 11 1 17 -2 13 -5z m-263 -59
c3 -8 1 -15 -4 -15 -6 0 -10 7 -10 15 0 8 2 15 4 15 2 0 6 -7 10 -15z m13 -47
c-3 -8 -6 -5 -6 6 -1 11 2 17 5 13 3 -3 4 -12 1 -19z m103 2 c0 -5 -4 -10 -10
-10 -5 0 -10 5 -10 10 0 6 5 10 10 10 6 0 10 -4 10 -10z m-765 -14 c33 -8 82
-24 110 -36 71 -31 173 -124 201 -184 13 -28 22 -52 20 -53 -2 -2 -39 32 -82
75 -43 44 -99 89 -124 101 l-45 22 30 -26 c17 -13 35 -25 40 -25 19 0 73 -55
117 -120 54 -79 88 -140 67 -124 -17 13 -59 25 -56 15 4 -13 -69 -100 -85
-101 -10 0 -22 -8 -27 -19 -6 -10 -22 -22 -36 -25 -14 -4 -25 -11 -25 -16 0
-6 -4 -10 -10 -10 -20 0 4 31 40 51 28 16 36 26 33 40 -6 20 21 69 37 69 5 0
10 -10 13 -22 3 -21 4 -21 11 -5 6 13 1 24 -20 42 -16 14 -33 25 -38 25 -5 0
-6 28 -3 63 6 56 5 60 -8 43 -8 -11 -15 -28 -15 -38 0 -26 -38 -138 -57 -168
-23 -34 -52 -64 -57 -59 -3 3 -6 34 -7 69 l-2 65 -48 0 c-27 0 -49 -1 -49 -2
0 -2 15 -9 33 -17 17 -8 25 -15 17 -15 -13 -1 -13 -2 0 -12 11 -7 3 -8 -30 -4
-42 7 -80 25 -51 25 7 0 9 5 5 11 -3 6 -1 14 5 18 8 5 4 15 -12 32 -33 33 -39
59 -22 93 19 36 20 34 -12 38 -33 4 -41 24 -13 31 16 4 20 12 18 41 -3 36 -13
37 -20 1 -3 -14 -11 -20 -28 -18 -23 1 -25 -2 -25 -43 0 -24 -4 -43 -10 -41
-5 1 -8 10 -7 20 2 10 -7 27 -21 37 -15 12 -24 30 -25 48 -1 27 2 29 66 42 37
8 105 14 152 13 l85 -1 -50 15 c-68 19 -221 11 -297 -16 -120 -42 -220 -103
-305 -186 -46 -44 -83 -78 -83 -76 0 10 85 115 134 166 63 64 183 127 286 149
86 18 210 19 285 2z m780 -6 c-4 -12 0 -31 9 -45 20 -30 21 -41 2 -26 -11 9
-15 9 -18 -1 -3 -8 -7 -6 -11 6 -4 10 -3 15 3 11 6 -3 10 -1 10 4 0 6 -4 11
-9 11 -6 0 -6 12 0 30 12 33 24 42 14 10z m-41 -130 c8 -25 17 -58 21 -73 5
-24 4 -27 -9 -15 -7 7 -12 16 -9 20 2 4 -3 29 -12 54 -9 26 -18 68 -20 93 l-5
46 10 -40 c6 -22 17 -60 24 -85z m93 25 c-4 -9 -12 -13 -19 -9 -8 5 -9 9 -1
11 11 4 9 14 -11 78 -4 11 3 1 15 -21 12 -23 19 -49 16 -59z m26 43 c4 -10 3
-18 -2 -18 -5 0 -11 8 -14 18 -2 9 -8 26 -12 37 l-7 20 14 -20 c8 -11 18 -28
21 -37z m77 -30 c0 -6 -7 -5 -15 2 -8 7 -15 17 -15 22 0 6 7 5 15 -2 8 -7 15
-17 15 -22z m-6262 -21 c6 -5 12 -26 12 -47 0 -34 -4 -42 -32 -56 -26 -13 -38
-14 -69 -5 -32 10 -39 17 -44 45 -5 22 -1 44 9 63 15 30 16 30 63 19 26 -6 54
-15 61 -19z m5990 -2 c-3 -3 -9 2 -12 12 -6 14 -5 15 5 6 7 -7 10 -15 7 -18z
m130 0 c-3 -3 -9 2 -12 12 -6 14 -5 15 5 6 7 -7 10 -15 7 -18z m180 5 c12 -19
11 -20 -8 -8 -20 13 -27 28 -12 28 4 0 13 -9 20 -20z m-3779 -1 c17 -6 31 -14
31 -19 0 -4 20 -29 45 -54 25 -26 45 -52 45 -57 0 -5 5 -9 10 -9 6 0 10 -7 10
-15 0 -8 5 -15 10 -15 6 0 10 -7 10 -15 0 -22 18 -18 25 6 4 11 9 18 11 16 6
-5 -44 -133 -63 -163 -18 -28 -52 -130 -64 -189 -5 -27 -29 -99 -53 -160 -24
-60 -56 -143 -71 -183 -30 -76 -45 -97 -45 -62 0 11 -8 24 -17 27 -37 14 -52
40 -59 96 -5 40 -3 57 5 57 17 0 13 29 -9 57 -11 14 -20 34 -20 45 0 27 61
117 85 125 27 8 43 32 37 56 -4 17 -11 19 -51 13 -32 -4 -53 -14 -68 -31 -12
-14 -28 -25 -35 -25 -16 0 -48 -50 -48 -75 0 -9 -4 -13 -10 -10 -5 3 -10 0
-10 -8 0 -7 -8 -30 -18 -50 -14 -30 -33 -45 -96 -77 -87 -45 -104 -48 -112
-22 -3 9 -10 25 -15 35 -8 15 -6 20 11 24 13 3 19 11 16 20 -9 23 37 88 55 78
15 -10 79 74 95 125 10 30 28 71 40 91 13 20 21 39 18 42 -8 7 17 100 31 117
7 8 20 31 28 50 14 33 36 64 73 102 19 20 111 68 129 68 7 0 26 -5 44 -11z
m2457 -35 c21 -50 15 -79 -15 -79 -24 0 -28 4 -54 65 -17 38 -10 50 31 50 17
0 27 -9 38 -36z m1231 -26 c-2 -13 -4 -5 -4 17 -1 22 1 32 4 23 2 -10 2 -28 0
-40z m70 30 c-3 -8 -6 -5 -6 6 -1 11 2 17 5 13 3 -3 4 -12 1 -19z m-117 2 c0
-5 -2 -10 -4 -10 -3 0 -8 5 -11 10 -3 6 -1 10 4 10 6 0 11 -4 11 -10z m202
-43 c48 -49 98 -126 98 -151 0 -9 5 -16 10 -16 6 0 3 -11 -6 -25 -13 -20 -19
-23 -30 -14 -16 13 -19 39 -5 39 12 0 7 48 -6 61 -7 7 -9 2 -6 -15 3 -16 1
-26 -6 -26 -7 0 -9 5 -5 12 5 8 2 9 -9 5 -14 -5 -16 -2 -11 21 4 15 3 24 -1
20 -5 -4 -14 -3 -22 3 -15 13 -18 33 -3 24 5 -3 -2 16 -15 44 -14 27 -31 52
-38 54 -9 4 -9 6 0 6 7 1 32 -19 55 -42z m-66 -18 c-5 -27 -3 -29 19 -25 25 5
34 -7 14 -19 -6 -4 -15 -17 -20 -29 -8 -18 -9 -18 -4 6 4 22 2 26 -10 22 -10
-4 -14 -14 -10 -28 6 -21 6 -21 -9 -2 -18 23 -20 54 -6 91 13 35 34 22 26 -16z
m-274 3 c4 -12 -1 -18 -13 -19 -11 -1 -19 3 -19 8 0 6 5 7 10 4 6 -3 10 1 10
9 0 21 7 20 12 -2z m-844 -9 c-13 -16 -34 -17 -44 -1 -4 7 -3 8 4 4 7 -4 12
-3 12 3 0 5 9 9 19 8 15 -1 17 -4 9 -14z m1045 -8 c-3 -9 -8 -14 -10 -11 -3 3
-2 9 2 15 9 16 15 13 8 -4z m1847 -25 c0 -11 4 -20 9 -20 16 0 18 -33 4 -60
-7 -14 -13 -33 -13 -43 0 -10 -4 -15 -10 -12 -5 3 -10 -1 -10 -11 0 -12 -7
-15 -30 -12 -21 3 -30 0 -33 -11 -3 -9 -5 -3 -6 12 -1 20 3 26 12 21 7 -5 7
-1 -2 10 -13 15 -13 19 0 27 12 8 11 12 -6 27 -22 19 -22 52 0 52 8 0 18 6 22
14 7 12 26 20 56 25 4 0 7 -8 7 -19z m-180 0 c0 -5 -5 -10 -11 -10 -5 0 -7 5
-4 10 3 6 8 10 11 10 2 0 4 -4 4 -10z m-5 -39 c3 -5 1 -12 -5 -16 -5 -3 -10 1
-10 9 0 18 6 21 15 7z m-1540 -32 c11 -17 -1 -21 -15 -4 -8 9 -8 15 -2 15 6 0
14 -5 17 -11z m-1405 -25 c0 -8 -6 -11 -15 -8 -8 4 -15 12 -15 20 0 8 6 11 15
8 8 -4 15 -12 15 -20z m1350 1 c0 -8 -4 -17 -10 -20 -6 -4 -10 5 -10 20 0 15
4 24 10 20 6 -3 10 -12 10 -20z m-6362 -7 c16 -16 15 -23 -2 -41 -17 -17 -75
-11 -83 9 -13 35 56 61 85 32z m6482 -10 c0 -6 -6 -5 -15 2 -8 7 -15 14 -15
16 0 2 7 1 15 -2 8 -4 15 -11 15 -16z m-208 -23 c3 -13 1 -22 -3 -19 -9 5 -13
44 -5 44 2 0 6 -11 8 -25z m58 8 c0 -8 5 -11 10 -8 6 3 10 -3 10 -15 0 -22 -6
-19 -37 21 -10 13 -10 16 2 16 8 0 15 -7 15 -14z m-1336 -39 c24 -9 19 -24 -8
-24 -26 0 -40 12 -29 24 8 8 17 8 37 0z m123 -9 c8 -23 0 -24 -19 -3 -15 15
-16 18 -3 18 9 0 18 -7 22 -15z m2963 -35 c0 -14 -25 -18 -37 -5 -6 7 -10 15
-7 18 7 7 44 -4 44 -13z m-2731 -34 c39 -21 94 -85 87 -103 -3 -8 -6 -30 -6
-49 0 -24 -5 -34 -16 -34 -8 0 -13 4 -10 8 3 5 -13 19 -35 31 -32 18 -49 22
-82 17 -23 -4 -56 -8 -74 -10 -17 -2 -36 -7 -42 -11 -16 -9 -14 2 5 30 10 15
12 25 5 25 -6 0 -11 -4 -11 -10 0 -20 -20 -9 -26 14 -9 37 16 78 56 92 48 17
115 17 149 0z m603 -48 c-8 -8 -9 -4 -5 13 4 13 8 18 11 10 2 -7 -1 -18 -6
-23z m-1142 -8 c0 -5 -5 -10 -11 -10 -5 0 -7 5 -4 10 3 6 8 10 11 10 2 0 4 -4
4 -10z m688 -9 c-6 -10 -17 -17 -25 -14 -7 3 -10 9 -7 14 3 5 10 7 15 4 5 -4
9 -1 9 4 0 6 5 11 10 11 6 0 6 -7 -2 -19z m2432 -31 c4 -8 15 -31 24 -50 31
-65 -6 -98 -40 -35 -10 19 -22 35 -26 35 -10 0 -11 54 -1 64 11 10 35 3 43
-14z m-3155 -9 c0 -8 -7 -16 -15 -18 -13 -4 -13 -3 0 6 12 8 5 11 -30 11 -33
0 -41 3 -30 10 22 15 75 8 75 -9z m1842 -21 c12 -22 18 -40 15 -40 -8 0 -52
63 -52 73 0 18 17 3 37 -33z m-1957 10 c0 -5 -5 -10 -11 -10 -5 0 -7 5 -4 10
3 6 8 10 11 10 2 0 4 -4 4 -10z m180 -20 c-19 -13 -30 -13 -30 0 0 6 10 10 23
10 18 0 19 -2 7 -10z m-44 -14 c17 -13 17 -15 3 -21 -29 -11 -112 -1 -117 14
-3 8 0 11 6 7 6 -3 13 -2 17 4 9 15 68 12 91 -4z m-139 -2 c-3 -3 -12 -4 -19
-1 -8 3 -5 6 6 6 11 1 17 -2 13 -5z m373 -2 c0 -14 -11 -21 -26 -15 -21 8 -17
23 6 23 11 0 20 -4 20 -8z m339 -18 c11 -14 18 -31 16 -37 -2 -7 25 -36 61
-66 35 -30 64 -63 64 -72 0 -10 14 -28 31 -40 40 -28 58 -71 56 -134 0 -28 -2
-40 -4 -27 -3 12 -9 22 -14 22 -15 0 -266 255 -273 278 -6 17 -1 21 26 27 l32
7 -28 24 c-15 13 -35 24 -44 24 -15 0 -15 2 -2 10 26 17 58 11 79 -16z m-4971
10 c27 -8 29 -39 3 -53 -13 -7 -24 -6 -37 4 -13 10 -15 14 -5 15 8 0 11 7 8
20 -6 22 -3 23 31 14z m6269 -36 c-3 -7 -5 -2 -5 12 0 14 2 19 5 13 2 -7 2
-19 0 -25z m40 -98 c8 -35 16 -76 18 -90 2 -14 13 -80 25 -147 22 -125 34
-160 135 -388 71 -161 119 -306 135 -410 7 -44 17 -85 21 -91 9 -11 39 -187
33 -193 -2 -2 -11 24 -20 58 -12 43 -20 58 -27 49 -5 -8 -7 3 -4 31 4 30 1 48
-9 58 -8 8 -14 11 -14 6 0 -5 5 -14 10 -19 6 -6 8 -19 4 -29 -6 -16 -8 -15
-20 6 -7 13 -16 24 -21 24 -15 0 -43 32 -35 40 4 5 1 5 -6 1 -17 -10 -58 27
-83 76 -10 20 -27 42 -36 47 -13 8 -14 10 -4 11 8 0 24 -9 36 -20 37 -35 48
-10 18 45 -42 79 -63 162 -62 245 0 61 2 70 10 50 6 -14 8 -36 6 -50 -3 -14
-1 -34 3 -45 8 -17 9 -18 9 -2 1 15 4 16 23 6 17 -9 20 -9 16 2 -3 8 -13 39
-22 69 -10 30 -23 66 -30 80 -8 14 -17 50 -20 80 -4 30 -11 62 -17 70 -7 11
-8 3 -4 -27 7 -45 0 -83 -16 -83 -5 0 -9 7 -9 17 0 9 -3 14 -6 11 -3 -4 -1
-22 4 -42 6 -19 8 -55 4 -78 -4 -34 -7 -38 -11 -20 l-6 24 -24 -21 c-21 -18
-23 -27 -19 -81 3 -42 1 -57 -6 -50 -6 6 -11 30 -11 53 0 28 -4 41 -12 40 -7
-2 -17 6 -23 17 -16 30 -27 24 -24 -12 l3 -33 -10 35 c-6 19 -15 51 -21 71 -6
20 -26 56 -44 79 -35 44 -43 90 -24 135 l9 20 0 -20 c1 -15 4 -17 10 -7 6 11
12 10 26 -5 18 -17 18 -17 11 12 -5 17 -9 45 -10 62 -1 42 -23 51 -24 11 -1
-53 -9 -41 -21 35 -8 50 -9 82 -2 99 5 14 7 29 3 34 -4 4 -2 4 4 1 6 -3 9 -21
7 -39 -1 -18 0 -26 4 -18 3 8 14 26 24 39 17 21 19 22 19 5 1 -18 1 -18 14 -1
15 19 31 23 20 5 -4 -7 -3 -10 1 -5 13 12 16 47 5 65 -5 10 -10 12 -10 5 0 -7
-9 -13 -21 -13 -11 0 -18 4 -14 9 3 5 -3 11 -12 13 -13 2 -8 9 20 26 21 12 42
22 47 22 18 0 22 -48 10 -125 -10 -67 -10 -79 4 -94 9 -10 16 -20 16 -23 0 -4
17 -24 38 -46 20 -22 45 -50 54 -63 15 -20 17 -21 11 -4 -3 11 -21 39 -40 62
-44 55 -63 103 -62 155 l1 43 13 -50 13 -50 -4 60 c-3 33 -7 77 -10 98 -2 20
0 37 5 37 6 0 8 30 6 73 -3 39 -2 63 1 52 3 -11 12 -49 21 -85z m-1277 68 c0
-6 -6 -5 -15 2 -8 7 -15 14 -15 16 0 2 7 1 15 -2 8 -4 15 -11 15 -16z m4023
-18 c22 -26 8 -61 -22 -53 -24 6 -38 53 -19 64 19 12 22 11 41 -11z m-2850
-10 c3 -11 1 -20 -4 -20 -5 0 -9 9 -9 20 0 11 2 20 4 20 2 0 6 -9 9 -20z m-8
-49 c-3 -6 -11 -8 -17 -5 -6 4 -5 9 3 15 16 10 23 4 14 -10z m-20 -21 c3 -6
-1 -7 -9 -4 -18 7 -21 14 -7 14 6 0 13 -4 16 -10z m837 -47 c23 -50 25 -65 19
-110 -5 -36 -4 -53 3 -53 24 -1 -110 -60 -136 -60 -27 0 -55 22 -85 67 -11 17
-12 26 -3 43 7 13 9 37 6 55 -6 29 -2 37 36 74 37 35 49 41 88 41 l46 0 26
-57z m454 42 c16 -5 37 -90 30 -119 -3 -14 -24 -44 -46 -67 -35 -37 -43 -41
-75 -36 -19 3 -41 12 -48 19 -34 35 -58 80 -63 121 -6 39 -3 47 21 69 25 23
33 25 99 21 39 -2 76 -6 82 -8z m-2466 -53 c-6 -2 -19 7 -30 20 -30 36 -23 45
10 13 17 -17 26 -31 20 -33z m-270 34 c0 -8 -6 -21 -13 -28 -7 -7 -18 -25 -24
-40 -7 -15 -20 -27 -30 -26 -10 0 -26 -3 -36 -7 -15 -6 -17 -2 -15 28 2 21 7
33 14 30 7 -2 15 0 19 6 3 6 15 11 26 11 10 0 18 3 18 8 -4 22 3 32 21 32 11
0 20 -6 20 -14z m1126 -66 c-14 -26 -24 -49 -21 -51 9 -9 -25 -100 -49 -132
-13 -17 -40 -40 -58 -50 l-33 -19 33 31 c37 36 33 40 -10 10 -16 -12 -32 -18
-36 -15 -3 4 0 11 8 16 8 6 10 10 5 10 -6 0 -17 -6 -24 -12 -7 -7 -3 7 7 31
11 24 26 47 33 52 8 5 10 9 6 9 -12 0 12 40 25 40 6 0 4 -8 -5 -18 -10 -10
-14 -22 -10 -25 3 -4 0 -18 -7 -32 -17 -32 -8 -41 27 -26 32 13 47 33 67 92
13 36 12 40 -1 34 -12 -4 -13 -3 -5 8 7 8 9 17 6 20 -3 3 1 16 10 29 11 15 16
17 16 8 1 -21 29 30 31 55 1 18 2 19 6 1 3 -10 -7 -40 -21 -66z m303 66 c-2
-2 -20 -6 -39 -10 l-35 -6 35 14 c31 12 51 13 39 2z m-165 -38 c3 -17 4 -33 1
-36 -3 -3 -5 1 -5 9 0 8 -6 26 -14 41 -11 21 -11 26 -1 22 7 -3 16 -19 19 -36z
m-1049 -9 c4 -11 4 -23 0 -27 -7 -7 -25 17 -25 36 0 20 18 14 25 -9z m866 -2
c-10 -9 -11 -8 -5 6 3 10 9 15 12 12 3 -3 0 -11 -7 -18z m-787 -39 c20 -39 20
-82 1 -102 -25 -24 -15 -51 11 -27 5 5 24 12 42 14 18 3 40 11 48 17 11 10 14
9 14 -2 0 -8 -11 -20 -25 -26 -15 -7 -22 -17 -19 -25 3 -8 -2 -17 -12 -21 -14
-5 -15 -4 -4 9 20 24 14 22 -116 -37 -52 -23 -54 -23 -54 6 0 14 -4 27 -10 31
-5 3 -8 27 -6 53 2 40 6 47 24 50 18 3 22 -2 22 -22 0 -14 5 -26 10 -26 6 0
10 20 10 44 0 90 34 125 64 64z m-553 6 c11 -14 10 -15 -11 -12 -13 1 -25 9
-28 16 -5 17 23 15 39 -4z m-4407 -25 c38 -18 66 -55 66 -85 0 -6 7 -14 15
-18 11 -4 13 -14 8 -38 -10 -56 -20 -61 -92 -54 -36 4 -70 11 -76 16 -19 16
-86 19 -92 4 -3 -8 -15 -14 -27 -14 -19 1 -19 2 -3 11 9 6 15 14 12 20 -4 5
-2 9 4 9 5 0 11 10 13 21 2 12 12 27 23 33 25 14 35 27 35 48 0 68 40 84 114
47z m5027 -11 c9 -17 8 -18 -9 -9 -11 6 -22 17 -25 25 -9 22 21 8 34 -16z
m-505 -17 c-4 -6 -19 -11 -34 -11 l-27 0 25 20 c25 19 49 13 36 -9z m2088 -7
c15 -6 17 -4 11 7 -4 8 0 7 11 -3 14 -14 16 -20 6 -30 -7 -7 -12 -20 -12 -30
0 -41 -64 -43 -103 -3 -15 15 -16 19 -1 47 16 31 33 33 88 12z m-796 -54 c-4
-34 -2 -47 6 -43 6 4 3 -3 -6 -14 -10 -11 -18 -26 -18 -34 0 -34 -137 -140
-180 -139 -13 1 -13 2 1 10 8 5 35 27 58 48 40 36 41 39 17 35 -14 -3 -23 -10
-19 -16 3 -6 1 -7 -6 -3 -15 10 -4 26 18 26 33 0 88 62 107 123 10 31 20 57
22 57 3 0 2 -22 0 -50z m2337 31 c3 -5 -5 -11 -17 -13 -19 -2 -22 -8 -20 -36
3 -34 -20 -68 -38 -57 -9 6 -12 0 -14 -35 -1 -8 -11 -16 -23 -18 -26 -4 -54
33 -48 63 2 11 4 23 4 28 1 4 8 7 16 7 8 0 19 9 25 19 19 36 100 65 115 42z
m-2105 -117 c0 -19 -4 -34 -8 -34 -4 0 -8 18 -8 39 0 22 3 38 8 35 4 -3 8 -21
8 -40z m-1650 -6 c0 -13 -37 9 -44 27 -5 13 -2 13 19 -1 14 -9 25 -20 25 -26z
m195 2 c-3 -5 -11 -10 -16 -10 -6 0 -7 5 -4 10 3 6 11 10 16 10 6 0 7 -4 4
-10z m568 -97 c9 -49 18 -110 21 -138 5 -48 4 -47 -14 20 -20 70 -38 205 -27
205 2 0 12 -39 20 -87z m2588 47 c14 -27 39 -88 39 -94 0 -3 -7 -6 -15 -6 -8
0 -15 -6 -15 -14 0 -17 -21 -26 -59 -26 -38 0 -64 45 -38 65 9 7 17 19 17 28
0 9 5 28 10 42 11 29 47 32 61 5z m-5780 -61 c-11 -24 -20 -41 -20 -37 -1 12
31 89 35 85 3 -2 -4 -24 -15 -48z m4064 -10 c3 -20 21 -56 40 -80 39 -50 63
-136 46 -166 -10 -17 -10 -17 -11 0 0 9 -4 17 -10 17 -5 0 -10 -7 -10 -16 0
-16 -38 -104 -45 -104 -2 0 0 12 5 26 15 40 12 82 -7 93 -10 6 -12 11 -6 11
19 0 12 53 -11 73 -10 9 -15 17 -11 17 5 0 0 7 -11 15 -10 8 -33 15 -51 15
-20 0 -42 10 -60 26 l-28 26 38 -21 c37 -20 109 -31 78 -12 -10 7 -10 10 -1
16 7 4 16 1 21 -6 5 -8 6 8 2 40 -4 40 -3 52 5 47 8 -5 12 2 13 21 1 29 4 23
14 -38z m858 -27 c9 -10 19 -32 23 -48 5 -26 1 -35 -26 -57 -17 -15 -42 -27
-55 -27 -13 0 -25 -5 -27 -10 -5 -16 -66 18 -73 40 -10 30 2 56 41 89 40 36
91 41 117 13z m-933 -42 c0 -5 -4 -10 -10 -10 -5 0 -10 5 -10 10 0 6 5 10 10
10 6 0 10 -4 10 -10z m-630 -25 c0 -2 -10 -9 -22 -15 -22 -11 -22 -10 -4 4 21
17 26 19 26 11z m3371 -31 c8 -10 6 -22 -11 -49 -27 -44 -54 -46 -69 -4 -11
31 -5 50 23 70 12 9 43 0 57 -17z m-3306 -14 c-10 -11 -22 -20 -28 -20 -5 0 1
9 14 20 31 25 37 25 14 0z m15 -64 c0 -19 -104 -123 -130 -131 -33 -10 -35 1
-4 17 16 7 48 41 72 76 40 57 62 71 62 38z m-160 5 c0 -5 -7 -14 -15 -21 -16
-14 -18 -10 -9 14 6 17 24 22 24 7z m2522 -23 c18 -18 31 -34 30 -35 -10 -12
3 -48 28 -75 17 -18 33 -41 36 -50 3 -10 10 -18 15 -18 5 0 9 -5 9 -11 0 -23
45 -75 63 -71 10 2 29 -4 42 -12 14 -9 25 -12 25 -6 0 5 -5 10 -10 10 -7 0 -8
6 -2 16 10 18 3 74 -9 74 -5 0 -9 8 -9 19 0 10 -12 27 -27 36 -16 10 -38 27
-50 38 -19 17 -21 22 -9 39 8 11 12 28 9 38 -8 29 59 45 100 24 16 -9 39 -13
50 -10 11 3 36 -2 56 -11 27 -12 31 -17 18 -20 -13 -4 -17 -13 -15 -46 3 -40
2 -42 -25 -40 l-28 2 22 -30 c12 -17 28 -33 35 -36 8 -3 12 -9 9 -13 -2 -4 18
-31 46 -60 39 -40 50 -59 46 -77 -2 -12 -1 -23 4 -23 13 0 8 -239 -5 -253 -7
-7 -15 -20 -19 -30 -5 -15 -16 -18 -54 -15 -45 3 -48 5 -78 55 -16 29 -37 54
-45 56 -8 1 -37 -1 -63 -6 -36 -6 -61 -4 -93 7 -24 8 -44 12 -44 8 0 -4 -5 1
-11 11 -7 13 -17 16 -32 11 -12 -4 -24 -9 -27 -13 -3 -3 -18 -13 -35 -21 -23
-12 -31 -24 -33 -49 -5 -45 9 -57 42 -36 34 22 71 8 86 -31 6 -15 22 -40 36
-57 33 -39 25 -90 -16 -99 -8 -2 -21 -11 -28 -20 -18 -24 -53 -23 -59 2 -4 13
-17 21 -42 25 -84 14 -94 18 -98 36 -3 10 -14 19 -24 19 -31 0 -68 60 -75 123
-5 44 -2 71 15 125 20 62 26 69 62 85 21 9 39 21 39 27 0 5 9 10 19 10 41 0
51 11 51 57 0 48 -42 122 -69 123 -8 0 -12 3 -8 6 3 4 -5 21 -18 39 -25 32
-34 62 -15 50 6 -4 10 6 10 22 0 45 22 74 70 94 61 24 66 24 102 -13z m-2307
-10 c-4 -18 -12 -37 -18 -43 -7 -7 -8 -4 -3 8 3 11 9 30 12 43 9 36 17 29 9
-8z m1711 0 c9 -16 31 -36 50 -44 50 -21 68 -67 52 -129 -10 -36 -10 -54 2
-92 19 -67 25 -160 10 -178 -7 -8 -25 -15 -40 -15 -23 0 -29 6 -40 43 -8 23
-20 51 -27 62 -7 11 -13 27 -13 36 0 35 -33 79 -77 103 -25 14 -51 26 -57 26
-16 0 -12 107 6 148 17 39 54 66 92 68 20 2 30 -5 42 -28z m-1656 -46 l1 -27
13 25 14 25 0 -25 c1 -14 2 -38 2 -55 3 -54 0 -65 -17 -65 -13 0 -15 -2 -5 -9
8 -5 0 -8 -23 -9 -42 -2 -38 13 5 23 24 5 28 10 21 23 -6 10 -6 23 0 33 6 12
4 19 -5 22 -7 3 -15 21 -18 41 -2 19 0 32 4 30 4 -3 8 -17 8 -32z m749 22 c7
4 10 0 9 -11 -3 -35 2 -63 11 -63 6 0 7 17 4 38 -3 20 -2 33 3 29 4 -4 10 -20
12 -35 2 -15 10 -34 18 -43 16 -18 19 -33 4 -24 -5 3 -10 2 -10 -3 0 -6 7 -13
16 -16 9 -3 14 -12 11 -19 -2 -6 11 -34 30 -61 18 -26 33 -53 33 -60 -1 -18
-77 72 -84 100 -4 14 -11 31 -17 37 -33 40 -69 106 -69 127 0 18 3 21 9 11 5
-7 14 -10 20 -7z m-1014 -14 c-3 -5 -12 -7 -20 -3 -21 7 -19 13 6 13 11 0 18
-4 14 -10z m52 -6 c-3 -3 -12 -4 -19 -1 -8 3 -5 6 6 6 11 1 17 -2 13 -5z m477
-18 c-6 -16 -24 -23 -24 -8 0 10 22 33 27 28 2 -2 1 -11 -3 -20z m-274 -39
c-38 -46 -78 -106 -74 -110 3 -2 -4 -7 -15 -10 -17 -4 -19 -2 -12 12 5 9 18
24 29 34 10 10 27 35 37 57 11 24 22 37 31 33 9 -3 10 -9 4 -16z m-80 -34 c-7
-21 -24 -48 -37 -61 -20 -18 -22 -24 -11 -35 7 -8 20 -16 28 -19 8 -4 -16 -6
-55 -5 -38 1 -59 3 -46 5 18 3 21 6 10 12 -11 7 -11 12 -1 22 9 9 12 9 12 0 0
-25 16 -10 33 31 9 23 27 53 38 67 19 24 19 23 -1 -19 -12 -23 -17 -41 -13
-38 5 3 18 24 29 46 23 48 30 46 14 -6z m323 32 c-3 -9 -8 -14 -10 -11 -3 3
-2 9 2 15 9 16 15 13 8 -4z m384 -62 c-2 -16 -4 -5 -4 22 0 28 2 40 4 28 2
-13 2 -35 0 -50z m-507 -10 c0 -7 -11 -13 -25 -13 -14 0 -25 5 -25 11 0 6 7 9
15 5 12 -4 14 0 9 22 -6 26 -6 26 9 7 9 -11 17 -26 17 -32z m383 0 c-7 -2 -13
-12 -13 -20 0 -9 -3 -14 -6 -10 -10 10 4 37 18 36 10 0 10 -2 1 -6z m87 -17
c0 4 14 -10 30 -31 36 -45 40 -62 5 -22 -13 15 -28 27 -33 27 -5 0 -17 10 -28
21 -19 22 -19 22 4 10 12 -6 22 -9 22 -5z m216 -32 c3 -47 -7 -36 -13 13 -2
20 -1 34 3 30 4 -3 8 -23 10 -43z m-700 23 c27 0 36 -7 62 -51 36 -59 72 -149
71 -174 0 -9 -7 -2 -16 18 -13 30 -16 32 -25 17 -5 -10 -6 -27 -3 -40 4 -14
-4 -7 -21 18 -21 29 -29 52 -29 85 0 36 -4 45 -19 48 -20 4 -36 -13 -36 -41 0
-14 5 -17 21 -12 13 4 19 3 16 -2 -8 -12 24 -75 58 -116 20 -25 25 -27 25 -12
0 25 13 11 16 -18 4 -35 6 -34 14 3 l7 35 2 -42 c0 -23 10 -65 21 -93 11 -28
19 -70 19 -93 -1 -40 -2 -39 -10 15 -4 32 -14 68 -20 80 -13 25 -118 150 -156
185 -18 18 -24 35 -27 85 -5 80 -8 90 -26 106 -13 12 -12 13 5 6 11 -4 34 -7
51 -7z m-106 -1 c0 -3 -4 -8 -10 -11 -5 -3 -10 -1 -10 4 0 6 5 11 10 11 6 0
10 -2 10 -4z m656 -23 c-7 -7 -26 7 -26 19 0 6 6 6 15 -2 9 -7 13 -15 11 -17z
m-916 -85 c5 -40 21 -140 36 -223 15 -82 29 -188 32 -234 4 -78 3 -83 -14 -73
-13 7 -18 23 -19 59 -2 78 -24 301 -40 400 -16 98 -19 161 -9 150 4 -3 10 -39
14 -79z m1035 72 c3 -5 1 -10 -4 -10 -6 0 -11 5 -11 10 0 6 2 10 4 10 3 0 8
-4 11 -10z m-825 -10 c8 -5 11 -10 5 -10 -5 0 -17 5 -25 10 -8 5 -10 10 -5 10
6 0 17 -5 25 -10z m1374 -70 c30 -12 57 -27 60 -35 3 -8 13 -15 22 -15 9 0 27
-9 41 -20 19 -15 21 -20 9 -20 -9 0 -16 -4 -16 -10 0 -5 -13 -7 -30 -3 -23 4
-30 2 -30 -10 0 -19 -36 -41 -55 -34 -7 3 -31 1 -54 -5 -31 -8 -53 -8 -82 1
-36 11 -39 15 -39 46 0 47 33 82 117 124 1 1 27 -8 57 -19z m-1507 -10 c-3
-11 -2 -20 2 -20 3 0 28 -18 55 -40 44 -37 160 -108 276 -171 24 -13 52 -31
61 -40 9 -9 23 -19 30 -21 8 -3 11 -8 8 -12 -3 -3 -20 1 -37 10 -18 8 -36 13
-42 9 -5 -3 -10 -1 -10 5 0 7 -8 9 -21 5 -15 -5 -19 -4 -14 5 5 8 1 11 -11 8
-20 -4 -22 -23 -9 -70 5 -18 3 -28 -4 -28 -6 0 -11 8 -11 18 0 14 -2 15 -10 2
-8 -12 -10 -10 -10 8 0 13 -4 20 -10 17 -5 -3 -10 1 -10 9 0 8 -5 18 -10 21
-7 4 -9 -2 -4 -19 9 -38 -2 -32 -23 12 -19 42 -22 45 -59 87 -14 17 -31 29
-36 27 -5 -1 -7 2 -4 6 8 13 -94 123 -107 115 -6 -4 -8 0 -4 10 5 14 2 16 -21
11 -26 -6 -26 -6 -7 9 15 13 16 17 5 17 -12 0 -10 4 4 15 27 21 39 19 33 -5z
m-444 -138 c-10 -20 -25 -38 -33 -41 -11 -3 -10 0 3 13 21 21 22 27 2 20 -21
-8 -29 20 -16 58 10 30 9 31 -4 14 -9 -12 -15 -15 -15 -7 0 7 10 24 23 37 l22
23 18 -41 c17 -39 17 -42 0 -76z m-106 92 c-3 -3 -12 -4 -19 -1 -8 3 -5 6 6 6
11 1 17 -2 13 -5z m-14 -41 c-7 -2 -19 -2 -25 0 -7 3 -2 5 12 5 14 0 19 -2 13
-5z m36 -48 l0 -20 -9 20 c-5 11 -9 29 -9 40 l0 20 9 -20 c5 -11 9 -29 9 -40z
m2301 -22 c0 -8 4 -11 10 -8 5 3 21 -5 35 -19 32 -32 49 -33 69 -4 22 31 33
16 50 -65 14 -66 7 -137 -13 -137 -5 0 -11 -17 -15 -39 -3 -21 -13 -44 -21
-51 -9 -8 -12 -17 -6 -24 30 -39 17 -146 -18 -146 -21 1 -75 56 -66 69 3 6 1
11 -4 11 -6 0 -11 -6 -11 -14 0 -8 -7 -16 -15 -20 -8 -3 -14 -11 -13 -18 3
-14 -18 -13 -58 2 -15 6 -27 22 -33 48 -16 58 -37 73 -84 59 -20 -7 -37 -18
-37 -24 0 -7 -5 -13 -11 -13 -6 0 -8 -7 -5 -15 8 -21 -20 -30 -50 -16 -20 9
-25 17 -22 39 2 21 8 27 26 26 23 -1 25 3 22 52 -1 23 4 33 22 42 13 6 17 11
11 11 -9 1 -7 8 5 23 38 47 53 58 82 58 29 0 30 -1 31 -52 1 -122 29 -171 66
-118 9 12 31 28 49 36 31 13 33 16 22 34 -7 11 -16 20 -19 20 -4 0 -10 15 -13
34 -8 43 -34 96 -58 117 -10 9 -15 18 -12 21 2 3 -3 24 -12 47 -18 46 -10 67
29 73 27 4 67 -19 67 -39z m-577 2 c4 -8 2 -17 -3 -20 -6 -4 -10 3 -10 14 0
25 6 27 13 6z m-1716 -27 c-3 -8 -6 -5 -6 6 -1 11 2 17 5 13 3 -3 4 -12 1 -19z
m-1517 -83 c37 -25 94 -55 126 -65 33 -11 67 -25 77 -30 11 -7 17 -7 17 0 0
26 19 5 33 -37 9 -27 16 -39 17 -28 1 20 1 20 15 1 8 -11 15 -17 15 -13 0 4 9
3 20 -3 27 -14 26 -57 -1 -65 -21 -7 -48 17 -49 43 0 17 -19 15 -26 -2 -3 -8
-12 -17 -20 -20 -11 -4 -12 -2 -4 14 11 20 8 22 -59 35 -19 4 -48 16 -65 26
-19 11 -50 19 -77 19 -53 0 -59 9 -59 91 0 37 -5 50 -22 62 -13 9 -19 16 -14
16 5 1 40 -19 76 -44z m1695 15 c-8 -14 8 -13 22 1 9 9 23 4 57 -17 25 -16 48
-34 50 -41 3 -7 -16 4 -42 23 -46 36 -46 36 -56 14 -8 -17 -6 -24 7 -32 10 -5
14 -14 11 -20 -4 -6 -1 -9 7 -6 8 3 12 14 11 24 -3 14 -1 16 8 8 9 -9 9 -16
-1 -31 -10 -17 -7 -28 22 -77 47 -78 66 -116 73 -148 5 -23 3 -28 -12 -28 -11
0 -27 10 -36 23 -9 12 -23 31 -32 42 -15 19 -15 19 -9 -5 14 -60 -17 15 -56
134 -37 115 -63 160 -59 104 1 -13 1 -25 0 -28 -8 -17 -6 -78 2 -93 8 -16 7
-17 -10 -8 -26 14 -39 71 -33 141 1 6 10 10 20 10 11 0 23 5 26 10 3 6 13 10
21 10 8 0 12 -4 9 -10z m-20 -80 c3 -5 1 -10 -4 -10 -6 0 -11 5 -11 10 0 6 2
10 4 10 3 0 8 -4 11 -10z m677 -90 c3 -17 1 -30 -4 -30 -4 0 -8 9 -8 19 0 11
-4 23 -10 26 -5 3 -10 13 -10 22 0 27 27 -4 32 -37z m43 -49 c-9 -8 -25 21
-25 44 0 16 3 14 15 -9 9 -16 13 -32 10 -35z m132 27 c-3 -7 -5 -2 -5 12 0 14
2 19 5 13 2 -7 2 -19 0 -25z m-4091 -71 c6 -45 17 -114 24 -153 12 -65 12 -76
-4 -118 -22 -58 -33 -53 -16 8 12 45 7 110 -11 136 -9 12 -10 11 -4 -5 14 -43
16 -102 4 -130 -10 -24 -13 -26 -16 -12 -3 10 0 24 6 31 12 15 5 46 -11 46 -6
0 -7 -7 -4 -16 3 -8 2 -12 -4 -9 -6 3 -10 13 -10 21 0 8 -3 13 -7 13 -25 -4
-33 4 -33 31 0 23 -6 33 -25 42 -17 7 -25 19 -25 36 0 21 -4 23 -24 18 -14 -3
-28 -2 -31 4 -3 6 -17 7 -31 4 -18 -5 -24 -2 -24 10 0 9 8 19 18 22 28 8 166
78 173 88 4 4 12 0 18 -10 9 -17 10 -16 11 10 0 53 15 16 26 -67z m4051 46
c-3 -10 -5 -2 -5 17 0 19 2 27 5 18 2 -10 2 -26 0 -35z m-2089 -10 c-3 -31
-34 -40 -32 -10 3 34 4 37 20 37 11 0 14 -8 12 -27z m68 -8 c9 -23 -5 -65 -21
-65 -10 0 -15 11 -15 33 0 19 3 37 7 40 11 11 23 8 29 -8z m1956 -20 c4 -38
-6 -48 -15 -14 -5 18 0 49 8 49 2 0 5 -16 7 -35z m-4635 17 c19 -12 -21 -42
-55 -42 -29 0 -40 6 -61 33 -12 16 -9 17 45 17 33 0 65 -4 71 -8z m4663 -12
c0 -5 -5 -10 -11 -10 -5 0 -7 5 -4 10 3 6 8 10 11 10 2 0 4 -4 4 -10z m-5523
-11 c15 -15 -5 -49 -24 -42 -7 3 -13 0 -13 -6 0 -6 5 -11 11 -11 5 0 8 -4 4
-9 -3 -5 -1 -12 5 -16 15 -9 2 -25 -21 -25 -21 0 -25 15 -7 26 7 5 3 10 -13
16 -22 8 -22 10 -6 19 9 6 17 18 17 28 0 31 25 42 47 20z m209 -1 c9 -14 -34
-50 -55 -46 -18 4 -16 38 2 50 18 11 45 9 53 -4z m544 -39 c0 -16 -30 -42 -38
-34 -4 4 -1 10 6 12 6 3 12 14 12 24 0 11 5 17 10 14 6 -3 10 -11 10 -16z
m6690 -5 c0 -8 -7 -14 -15 -14 -15 0 -21 21 -9 33 10 9 24 -2 24 -19z m60 22
c0 -11 -19 -15 -25 -6 -3 5 1 10 9 10 9 0 16 -2 16 -4z m-1277 -66 c16 -26 17
-31 5 -22 -10 8 -20 22 -23 33 -9 27 -28 24 -20 -3 5 -20 4 -21 -5 -5 -12 18
-5 40 11 35 6 -2 20 -19 32 -38z m-6544 6 c28 -13 48 -66 25 -66 -8 0 -14 -4
-14 -9 0 -13 -67 -2 -108 17 -23 10 -63 15 -132 14 -92 -1 -136 10 -93 24 10
3 27 10 38 16 11 6 45 10 75 9 31 -1 67 2 80 8 28 11 93 4 129 -13z m5411 -13
c0 -60 -12 -71 -54 -51 -41 20 -40 45 2 71 42 26 52 21 52 -20z m-4055 7 c9
-10 15 -26 12 -35 -4 -8 -1 -15 5 -15 6 0 3 -9 -6 -19 -16 -18 -16 -21 -2 -43
15 -24 15 -24 -30 -36 -41 -11 -46 -15 -42 -37 3 -14 1 -25 -4 -25 -6 0 -7 20
-3 49 6 46 5 51 -28 83 l-34 35 19 26 c17 23 23 25 40 16 13 -7 18 -7 14 -1
-5 9 5 15 35 21 3 0 14 -8 24 -19z m-831 -11 c14 -7 27 -17 30 -24 6 -16 -30
-55 -49 -55 -8 0 -15 -8 -15 -19 0 -14 -6 -17 -25 -13 -30 5 -33 22 -4 22 12
0 17 4 14 11 -4 6 -13 8 -20 5 -8 -3 -19 2 -25 10 -7 8 -9 14 -4 14 5 0 3 4
-5 9 -8 5 5 7 35 4 39 -3 45 -2 32 7 -15 9 -16 14 -5 25 15 17 11 17 41 4z
m494 -8 c9 -5 25 -12 35 -15 26 -8 33 -37 13 -51 -18 -14 -80 -5 -120 17 -21
12 -21 12 4 19 21 6 22 7 5 9 -16 1 -14 4 10 15 37 17 32 17 53 6z m-753 -27
c14 -14 25 -27 23 -29 -48 -40 -119 0 -76 43 17 17 24 15 53 -14z m2722 -177
c-2 -6 -9 9 -17 32 -14 45 -21 49 -43 26 -12 -11 -17 -12 -21 -2 -3 6 -4 0 -2
-15 1 -15 0 -25 -4 -23 -9 6 -20 -19 -20 -45 0 -10 -6 -25 -14 -33 -8 -8 -26
-31 -40 -51 -20 -30 -23 -42 -16 -62 15 -39 11 -53 -5 -17 -10 24 -11 40 -3
67 8 26 8 42 -2 66 -12 29 -54 72 -82 83 -20 8 7 24 54 31 75 12 115 41 134
95 l18 48 33 -96 c18 -52 32 -99 30 -104z m-3353 158 c-32 -14 -46 -11 -38 9
3 8 16 11 36 8 l31 -5 -29 -12z m7001 -55 c14 -28 36 -100 29 -100 -4 0 -47
82 -47 90 0 3 -13 25 -30 50 l-30 45 32 -30 c18 -16 39 -41 46 -55z m-1520 8
c26 -11 32 -32 16 -57 -7 -11 -18 -10 -62 7 -45 16 -55 24 -57 47 -4 27 -3 28
37 21 22 -3 52 -11 66 -18z m-4997 -76 c2 -7 -2 -10 -12 -6 -9 3 -16 1 -16 -5
0 -6 5 -11 10 -11 6 0 10 -4 10 -10 0 -5 -9 -10 -19 -10 -11 0 -23 5 -26 10
-3 6 -2 10 3 10 5 0 12 9 15 21 6 22 28 22 35 1z m-438 -7 c-10 -12 -10 -15 1
-15 9 0 10 -3 2 -11 -13 -13 -105 -8 -110 6 -4 12 49 32 91 34 24 1 27 -1 16
-14z m2113 -5 c3 -11 1 -18 -4 -14 -5 3 -9 12 -9 20 0 20 7 17 13 -6z m3225 0
c21 -13 30 -25 25 -32 -9 -16 -12 -48 -3 -48 4 0 12 11 19 24 11 20 17 22 40
15 53 -18 61 -21 61 -29 0 -4 13 -10 29 -13 20 -4 31 -14 36 -34 14 -50 15
-62 5 -68 -6 -3 -10 -2 -10 3 0 5 -20 17 -44 26 -25 10 -81 37 -125 61 -45 24
-81 40 -82 37 0 -4 -5 6 -10 22 -5 20 -4 34 3 43 14 17 17 17 56 -7z m-5049
-45 c-13 -22 -29 -35 -42 -36 -20 -1 -19 -2 3 -8 l25 -7 -25 -7 c-37 -10 -80
-8 -80 3 0 6 -12 10 -26 10 -42 0 -20 15 60 40 42 13 76 27 76 32 0 4 7 8 15
8 11 0 10 -7 -6 -35z m4748 20 c8 -22 -6 -33 -17 -15 -13 20 -12 30 0 30 6 0
13 -7 17 -15z m-4547 -5 c0 -5 -7 -10 -16 -10 -8 0 -12 5 -9 10 3 6 10 10 16
10 5 0 9 -4 9 -10z m1055 -10 c-3 -5 -10 -10 -16 -10 -5 0 -9 5 -9 10 0 6 7
10 16 10 8 0 12 -4 9 -10z m-835 -37 c0 -19 -37 -16 -44 3 -3 9 -4 20 -1 25 8
11 45 -12 45 -28z m4437 15 c-3 -8 -6 -5 -6 6 -1 11 2 17 5 13 3 -3 4 -12 1
-19z m393 12 c0 -5 -7 -10 -16 -10 -8 0 -12 5 -9 10 3 6 10 10 16 10 5 0 9 -4
9 -10z m-5270 -80 c0 -5 -4 -10 -10 -10 -5 0 -10 5 -10 10 0 6 5 10 10 10 6 0
10 -4 10 -10z m-40 -8 c0 -10 -67 -32 -95 -32 -22 0 -12 13 13 16 9 2 18 8 20
13 4 13 62 15 62 3z m4464 -45 c15 -11 17 -17 7 -35 -14 -27 -22 -27 -51 -2
-41 35 0 69 44 37z m4099 4 c32 8 32 8 10 -9 -11 -9 -47 -33 -80 -52 -33 -20
-119 -96 -201 -177 -148 -148 -166 -162 -75 -57 61 71 70 94 16 43 -20 -18 -9
-2 26 38 110 127 258 244 269 213 2 -5 17 -4 35 1z m-4036 -27 c-3 -3 -12 -4
-19 -1 -8 3 -5 6 6 6 11 1 17 -2 13 -5z m66 -11 c-7 -2 -19 -2 -25 0 -7 3 -2
5 12 5 14 0 19 -2 13 -5z m1451 -31 c61 -20 111 -42 113 -49 3 -6 -5 -17 -16
-23 -16 -8 -34 -6 -80 10 -84 28 -111 41 -111 55 0 7 -10 20 -22 28 -37 25 -3
19 116 -21z m-3114 -61 c0 -45 -6 -37 -14 19 -4 31 -3 40 4 30 5 -8 10 -30 10
-49z m1995 13 l30 -14 -30 5 -30 5 25 -16 25 -15 -30 5 c-16 2 -50 14 -75 25
-44 19 -44 20 -10 15 27 -5 32 -3 20 5 -20 15 32 4 75 -15z m105 0 c0 -8 -4
-12 -10 -9 -5 3 -10 10 -10 16 0 5 5 9 10 9 6 0 10 -7 10 -16z m-3554 -27 c4
-4 16 -7 26 -7 27 0 22 -15 -9 -30 -38 -18 -49 -20 -83 -10 -20 6 -30 5 -33
-3 -3 -9 -9 -8 -22 3 -16 14 -14 16 31 37 47 21 76 25 90 10z m79 3 c3 -5 -1
-10 -10 -10 -9 0 -13 5 -10 10 3 6 8 10 10 10 2 0 7 -4 10 -10z m145 -10 c0
-23 -34 -40 -81 -40 -24 0 -29 4 -29 23 0 33 7 37 62 37 42 0 48 -3 48 -20z
m-507 -12 c2 -7 0 -23 -4 -35 -5 -13 -6 -29 -3 -37 8 -20 -24 -83 -50 -101
-26 -19 -96 -20 -96 -2 0 7 5 18 11 24 9 9 6 19 -10 42 l-22 31 23 1 23 1 -23
6 c-31 9 -33 26 -2 30 14 2 31 9 39 15 14 12 74 34 98 36 6 1 13 -5 16 -11z
m4939 -25 c-6 -2 -10 -9 -6 -14 3 -5 -4 -9 -15 -9 -11 0 -22 4 -25 9 -7 11 11
19 39 19 11 0 14 -2 7 -5z m-5372 -33 c0 -5 -4 -10 -10 -10 -5 0 -10 5 -10 10
0 6 5 10 10 10 6 0 10 -4 10 -10z m479 1 c11 -7 9 -10 -8 -16 -22 -7 -41 0
-41 16 0 11 30 12 49 0z m1811 -1 c0 -5 -4 -10 -10 -10 -5 0 -10 5 -10 10 0 6
5 10 10 10 6 0 10 -4 10 -10z m-1557 -35 c-18 -24 -43 -32 -57 -18 -9 10 34
42 57 43 17 0 17 -1 0 -25z m30 -62 c-7 -2 -19 -2 -25 0 -7 3 -2 5 12 5 14 0
19 -2 13 -5z m-1543 -20 c45 -20 51 -32 18 -34 -22 -1 -22 -1 2 -8 l24 -7 -22
-22 c-13 -13 -28 -20 -35 -15 -6 4 -42 6 -80 4 -49 -1 -76 3 -93 14 -32 20
-32 62 -1 75 38 15 144 11 187 -7z m136 -12 c5 -5 20 -11 33 -13 40 -5 38 -28
-2 -28 -20 0 -38 -6 -40 -12 -3 -7 -6 -1 -6 15 -1 24 -5 27 -33 27 -25 0 -29
3 -18 10 19 12 53 13 66 1z m8094 -25 c-15 -40 -13 -46 18 -46 38 0 123 -26
147 -45 18 -14 16 -14 -19 0 -21 8 -71 16 -111 17 l-73 2 19 49 c10 26 19 51
19 54 0 3 2 4 5 1 3 -3 1 -17 -5 -32z m-7800 -6 c0 -5 -5 -10 -11 -10 -5 0 -7
5 -4 10 3 6 8 10 11 10 2 0 4 -4 4 -10z m94 -5 c4 -12 -3 -15 -37 -14 -23 1
-34 3 -24 6 9 2 17 9 17 14 0 15 37 10 44 -6z m7626 -65 c-29 -57 -37 -44 -8
14 12 26 24 43 26 37 2 -5 -6 -28 -18 -51z m405 40 c-18 -20 -18 -20 13 -14
33 7 41 -3 20 -24 -9 -9 -8 -12 6 -12 9 0 15 -4 12 -9 -4 -5 0 -11 6 -14 7 -2
11 -6 8 -9 -31 -27 -73 -58 -78 -58 -4 0 -13 4 -21 9 -10 7 -11 13 -2 30 13
24 0 29 -19 6 -17 -21 -38 3 -36 42 2 40 21 61 59 66 18 2 36 5 41 5 5 1 1 -7
-9 -18z m-8329 0 c9 0 14 -7 12 -18 -2 -11 3 -26 10 -35 20 -23 5 -38 -31 -34
-24 2 -33 9 -35 25 -3 17 2 22 18 22 20 0 20 1 5 16 -13 14 -18 14 -32 2 -15
-12 -15 -11 -4 10 8 15 18 21 28 18 8 -3 21 -6 29 -6z m5939 -44 c28 -10 41
-21 43 -36 3 -16 0 -21 -10 -18 -7 3 -30 11 -50 19 -36 12 -47 27 -31 42 3 4
7 7 7 7 1 0 19 -7 41 -14z m142 -53 c32 -15 61 -58 48 -71 -7 -8 -45 29 -45
45 0 7 -4 13 -10 13 -5 0 -10 -5 -10 -10 0 -7 -6 -7 -20 0 -21 11 -28 40 -9
40 6 0 27 -7 46 -17z m2153 -53 c0 -5 -7 -10 -16 -10 -8 0 -12 5 -9 10 3 6 10
10 16 10 5 0 9 -4 9 -10z m103 -6 c-4 -11 -1 -15 13 -12 13 2 19 -3 18 -13 -1
-9 32 -52 73 -95 71 -75 84 -102 54 -112 -8 -3 -11 0 -7 6 4 6 -5 22 -20 34
-14 13 -49 52 -77 88 -28 36 -57 70 -65 77 -15 13 -10 43 7 43 6 0 8 -7 4 -16z
m-5451 -54 c12 0 18 8 19 23 2 20 2 20 6 -3 3 -14 11 -32 18 -40 12 -14 61
-139 72 -185 4 -19 4 -19 -10 -2 -9 10 -30 18 -51 19 -20 1 -36 5 -36 10 0 4
4 8 10 8 5 0 -2 12 -15 26 -14 15 -25 31 -25 36 0 5 -4 6 -10 3 -5 -3 -10 2
-10 12 0 11 -4 23 -10 29 -6 6 -6 21 0 43 6 22 6 40 0 52 -6 10 -10 21 -9 26
0 4 8 -7 16 -24 10 -19 24 -33 35 -33z m-952 25 c14 -19 14 -19 -2 -6 -10 7
-18 18 -18 24 0 6 1 8 3 6 1 -2 9 -13 17 -24z m3864 -19 c8 -17 28 -78 44
-136 17 -58 41 -136 56 -173 15 -41 22 -75 18 -86 -6 -18 -10 -18 -39 -6 -26
11 -34 22 -47 72 -18 65 -59 207 -86 298 -16 55 -17 60 -1 66 25 9 40 0 55
-35z m1634 8 c15 -16 49 -43 75 -59 26 -17 47 -32 47 -35 0 -3 14 -20 30 -38
35 -39 38 -52 10 -52 -11 0 -20 -4 -20 -10 0 -5 -11 -10 -25 -10 -14 0 -52
-13 -85 -30 -33 -16 -71 -30 -85 -30 -14 0 -40 -7 -57 -16 -29 -15 -30 -15
-25 0 4 10 2 16 -6 15 -24 -3 -37 1 -37 12 0 21 -128 125 -185 151 -18 8 -25
19 -25 38 0 37 16 48 98 65 38 8 80 19 93 25 13 5 57 8 96 6 65 -3 76 -6 101
-32z m-6220 -11 c3 -19 -1 -21 -25 -18 -15 2 -35 4 -43 5 -10 0 -7 7 10 20 31
25 54 22 58 -7z m420 -1 c7 -48 -67 -84 -98 -48 -6 8 -21 16 -32 18 -63 9 14
58 87 55 34 -2 41 -6 43 -25z m5084 13 c42 -5 47 -9 44 -28 -4 -28 -20 -32
-65 -13 -21 8 -42 12 -45 8 -4 -3 -11 0 -16 8 -7 11 -10 8 -11 -15 0 -26 -2
-27 -9 -10 -5 11 -9 30 -9 42 -1 19 3 21 32 18 17 -3 53 -7 79 -10z m-6934
-36 c-2 -6 -8 -10 -13 -10 -5 0 -11 4 -13 10 -2 6 4 11 13 11 9 0 15 -5 13
-11z m3052 -9 c0 -5 -4 -10 -10 -10 -5 0 -10 5 -10 10 0 6 5 10 10 10 6 0 10
-4 10 -10z m-2510 -40 c0 -5 -7 -10 -16 -10 -9 0 -12 -5 -8 -12 4 -7 3 -8 -4
-4 -6 4 -9 13 -5 21 6 17 33 21 33 5z m5715 -80 c10 0 15 -10 15 -30 0 -36
-17 -40 -26 -5 -3 13 -12 29 -20 36 -8 6 -14 23 -14 38 1 25 1 25 15 -6 8 -18
21 -33 30 -33z m-6322 20 c12 0 17 -8 17 -29 0 -17 -5 -33 -10 -36 -6 -4 -7
-11 -4 -17 10 -16 -17 -27 -42 -16 -21 10 -40 58 -22 58 4 0 5 12 2 27 -6 24
-5 26 17 20 13 -4 32 -7 42 -7z m3172 -58 c-8 -8 -25 17 -25 38 0 9 6 6 16 -8
9 -13 13 -26 9 -30z m5665 0 c0 -5 -9 -17 -19 -26 -20 -18 -259 -41 -856 -81
-270 -18 -289 -20 -311 -42 -14 -14 -19 -14 -46 -2 l-30 15 27 32 c26 32 50
41 57 22 2 -6 18 -6 43 0 22 5 63 10 90 10 36 1 44 4 30 9 -26 11 104 24 200
20 39 -2 117 2 175 9 58 6 195 15 305 18 164 5 265 12 328 23 4 0 7 -3 7 -7z
m-5557 -66 c15 -13 53 -34 85 -47 132 -53 250 -118 257 -141 4 -13 20 -44 36
-69 16 -25 34 -60 40 -77 12 -35 4 -87 -11 -77 -13 8 -13 5 5 -45 8 -23 15
-48 15 -55 0 -20 -42 -5 -65 23 -82 102 -123 164 -97 148 7 -4 8 13 3 63 -1
11 -5 10 -16 -5 -13 -18 -14 -18 -8 5 5 20 3 23 -10 18 -12 -4 -14 -2 -10 10
4 11 2 14 -5 9 -7 -4 -12 -1 -12 8 0 9 -4 16 -10 16 -5 0 -10 10 -11 23 0 17
-3 14 -13 -13 -15 -43 -8 -58 88 -179 95 -118 116 -150 116 -177 0 -29 -1 -29
-41 -5 -20 12 -27 21 -19 26 6 4 17 2 23 -4 17 -17 31 -13 17 4 -7 8 -21 15
-32 15 -22 0 -61 24 -102 63 -16 15 -33 27 -38 27 -5 0 -6 5 -3 10 4 6 -20 38
-52 71 -32 34 -57 67 -57 75 1 8 -2 12 -6 9 -10 -6 -62 15 -72 30 -5 6 -11 5
-17 -3 -7 -11 -9 -11 -14 2 -4 10 -1 16 8 16 8 0 15 5 15 11 0 6 -9 8 -20 4
-23 -7 -27 10 -4 19 8 3 12 10 9 16 -4 7 -13 6 -26 -1 -18 -9 -20 -8 -19 13 3
38 1 50 -11 42 -8 -4 -7 -9 2 -15 11 -7 10 -9 -3 -9 -21 0 -23 20 -5 39 7 8 0
7 -20 -3 -42 -21 -43 -6 -2 18 17 10 28 20 25 23 -8 8 -56 -25 -63 -44 -3 -8
0 -19 8 -24 11 -7 11 -9 -3 -9 -9 0 -20 -4 -23 -10 -4 -6 3 -9 16 -7 18 2 24
-7 39 -53 10 -30 16 -58 14 -62 -8 -13 103 -156 144 -185 21 -16 44 -34 52
-41 8 -7 39 -27 68 -43 29 -16 50 -34 47 -38 -3 -5 2 -12 11 -15 8 -3 13 -10
9 -15 -3 -6 -13 -7 -22 -4 -11 4 -14 3 -9 -5 4 -7 0 -12 -11 -13 -52 -3 -81 6
-115 35 -20 17 -53 45 -73 61 -21 17 -56 49 -80 73 -23 23 -49 42 -56 43 -10
0 -11 2 -1 6 17 7 15 23 -3 23 -8 0 -15 4 -15 8 0 5 -10 21 -23 36 -19 21 -25
24 -36 14 -11 -11 -13 -10 -8 4 3 9 1 19 -6 22 -9 3 -8 7 2 14 12 9 9 17 -18
47 l-32 37 33 34 c18 18 40 34 48 34 9 0 16 8 17 18 4 47 8 62 21 62 7 0 10 5
7 10 -7 11 -34 0 -59 -26 -11 -11 -25 -14 -46 -9 l-30 6 44 34 c56 42 76 53
123 64 63 15 87 12 116 -13z m3071 8 c17 -6 22 -39 7 -48 -15 -9 -45 20 -38
38 7 18 9 19 31 10z m32 -81 c16 -22 18 -49 3 -59 -15 -9 -36 15 -44 49 -6 22
-4 27 10 27 10 0 24 -8 31 -17z m1947 10 c-7 -2 -19 -2 -25 0 -7 3 -2 5 12 5
14 0 19 -2 13 -5z m-1158 -72 c28 -34 54 -56 60 -52 11 9 87 31 104 31 6 0 11
-7 11 -15 0 -9 -10 -15 -26 -15 -14 0 -45 -5 -70 -11 -37 -10 -44 -15 -44 -36
0 -15 -5 -23 -12 -20 -7 2 -12 14 -10 27 2 16 -2 21 -13 16 -9 -3 -14 -2 -11
2 3 5 -13 28 -35 52 l-41 44 -29 -16 c-16 -10 -31 -13 -34 -7 -4 5 0 9 7 9 7
0 27 11 43 25 17 13 35 24 40 24 6 1 32 -26 60 -58z m998 53 c-6 -3 11 -26 40
-55 l51 -49 -35 -35 c-23 -23 -56 -41 -101 -55 -37 -12 -70 -26 -73 -31 -4 -5
-28 -9 -54 -9 -42 0 -57 7 -132 60 -124 88 -177 137 -160 149 8 5 62 12 120
16 58 3 117 7 131 9 42 5 226 5 213 0z m-5674 -67 l24 -22 -12 22 c-6 12 -11
25 -11 29 0 13 38 -42 53 -77 8 -20 27 -45 42 -57 15 -12 23 -22 18 -22 -5 0
-23 11 -38 24 -23 20 -33 23 -48 15 -10 -6 -22 -7 -25 -3 -4 4 -1 9 6 11 6 3
12 9 12 14 0 6 -4 8 -10 4 -5 -3 -26 5 -47 18 -21 13 -55 30 -75 38 -43 15
-48 25 -15 32 41 9 101 -4 126 -26z m3651 -7 c8 -5 11 -10 5 -10 -5 0 -17 5
-25 10 -8 5 -10 10 -5 10 6 0 17 -5 25 -10z m-113 -77 c28 -43 62 -103 76
-133 14 -30 37 -80 51 -109 31 -65 32 -81 7 -81 -14 0 -20 10 -24 41 -3 23
-15 51 -26 63 -12 12 -21 28 -21 34 0 7 -4 12 -10 12 -13 0 -39 52 -38 76 0
10 -18 52 -41 93 -44 80 -45 81 -33 81 4 0 30 -35 59 -77z m872 23 c-1 -17 -2
-16 -9 6 -4 14 -11 32 -15 40 -3 7 1 4 9 -6 9 -11 16 -29 15 -40z m-6639 34
c0 -5 -8 -10 -17 -10 -15 0 -16 2 -3 10 19 12 20 12 20 0z m5957 4 c-3 -3 -12
-4 -19 -1 -8 3 -5 6 6 6 11 1 17 -2 13 -5z m204 -43 c63 -17 129 -34 147 -40
19 -6 44 -6 62 -1 18 5 30 5 30 -1 0 -5 -4 -9 -10 -9 -21 0 -9 -16 23 -29 17
-8 50 -28 72 -46 22 -18 54 -35 70 -39 17 -4 46 -20 65 -36 l35 -29 -45 6
c-53 6 -112 31 -104 44 3 5 0 9 -7 9 -7 0 -67 27 -133 59 -67 33 -175 78 -241
100 -141 48 -125 53 36 12z m1059 3 c0 -8 -4 -14 -10 -14 -5 0 -10 9 -10 21 0
11 5 17 10 14 6 -3 10 -13 10 -21z m-7240 2 c0 -9 -30 -14 -35 -6 -4 6 3 10
14 10 12 0 21 -2 21 -4z m2723 -16 c-3 -11 -12 -20 -21 -20 -13 0 -12 3 3 20
10 11 19 20 21 20 1 0 0 -9 -3 -20z m3280 -32 c9 -11 17 -35 17 -54 0 -31 -3
-34 -29 -34 -17 0 -33 5 -36 10 -3 6 1 10 9 10 21 0 20 8 -4 48 -11 18 -20 37
-20 43 0 16 42 0 63 -23z m619 21 c106 -12 136 -25 124 -54 -5 -15 -16 -17
-79 -11 -105 9 -207 28 -207 38 0 4 -8 8 -17 9 -18 0 40 25 64 28 7 0 59 -4
115 -10z m728 1 c0 -5 -7 -7 -15 -4 -8 4 -15 8 -15 10 0 2 7 4 15 4 8 0 15 -4
15 -10z m-7277 -12 c-17 -8 -29 -8 -45 0 -20 9 -18 11 22 11 40 0 42 -2 23
-11z m2614 -30 c-3 -8 -6 -5 -6 6 -1 11 2 17 5 13 3 -3 4 -12 1 -19z m4733
-14 c58 -14 128 -30 155 -36 56 -13 75 -24 75 -44 0 -21 -54 -17 -99 5 -21 11
-62 23 -92 27 -30 3 -81 12 -114 20 -33 8 -88 14 -122 14 -56 0 -63 -2 -63
-20 0 -15 -7 -20 -25 -20 -28 0 -32 12 -10 30 11 9 13 16 5 24 -7 7 -2 14 18
22 37 17 141 8 272 -22z m-595 8 c-3 -3 -11 0 -18 7 -9 10 -8 11 6 5 10 -3 15
-9 12 -12z m-4262 -17 c40 -28 45 -40 23 -48 -10 -4 -13 -1 -10 8 6 13 -52 52
-63 42 -2 -3 5 -8 16 -12 24 -7 28 -25 7 -25 -7 0 -29 6 -47 14 -27 11 -30 15
-13 19 12 3 6 5 -16 7 -78 5 -85 18 -10 19 65 1 80 -2 113 -24z m5491 14 c14
-7 23 -16 20 -20 -3 -5 0 -9 6 -9 7 0 8 -6 0 -19 -15 -29 -183 -87 -214 -75
-8 3 -11 17 -8 35 5 36 44 66 110 84 63 17 58 17 86 4z m-1892 -4 c8 -9 -6
-66 -17 -68 -6 -1 -10 15 -11 36 -1 33 12 48 28 32z m-3099 -20 c-3 -9 -8 -14
-10 -11 -3 3 -2 9 2 15 9 16 15 13 8 -4z m3992 5 c3 -5 -3 -10 -15 -10 -12 0
-18 5 -15 10 3 6 10 10 15 10 5 0 12 -4 15 -10z m-4285 -95 c0 -5 7 -23 16
-40 9 -16 17 -39 18 -51 2 -17 -3 -21 -27 -21 -23 0 -34 9 -54 39 -14 21 -29
38 -33 38 -8 0 -6 26 4 58 6 19 10 21 22 11 11 -9 14 -7 14 12 0 23 1 23 20
-6 11 -16 20 -34 20 -40z m89 31 c19 -23 -4 -28 -24 -6 -15 17 -16 20 -3 20 9
0 21 -6 27 -14z m4373 1 c7 -8 18 -12 24 -10 7 2 14 -4 18 -13 8 -20 -2 -33
-12 -18 -4 6 -18 15 -32 19 l-25 8 28 -26 c15 -14 27 -33 27 -41 0 -8 3 -22 7
-32 5 -13 -4 -9 -30 12 -20 16 -37 36 -37 45 0 8 -5 20 -10 25 -13 13 -2 44
15 44 8 0 20 -6 27 -13z m356 -24 c38 -12 52 -22 52 -35 0 -15 -8 -18 -45 -18
-25 0 -45 4 -45 9 0 6 -12 9 -27 8 -20 -2 -28 3 -31 18 -2 11 -11 26 -20 34
-15 11 -12 12 23 7 22 -4 64 -15 93 -23z m212 -35 c84 -19 134 -85 62 -82 -45
2 -122 34 -122 51 0 8 -9 17 -20 20 -11 3 -20 9 -20 14 0 12 39 11 100 -3z
m-1640 -34 c0 -38 -15 -38 -30 0 -9 25 -4 36 16 36 9 0 14 -11 14 -36z m96 -5
l-16 -23 0 25 c0 30 10 43 23 30 6 -6 3 -18 -7 -32z m1092 -6 c3 -35 -6 -40
-39 -23 -19 11 -26 40 -12 54 4 4 16 6 28 4 15 -2 21 -12 23 -35z m-7463 6 c5
-5 19 -9 32 -9 13 0 23 -5 23 -11 0 -5 -5 -7 -12 -3 -7 4 -8 3 -4 -5 16 -25
-21 -41 -99 -41 -73 0 -76 1 -73 22 2 16 -4 24 -22 29 -23 6 -23 7 8 8 17 1
32 5 32 10 0 20 93 20 115 0z m2812 -11 c-3 -7 -5 -2 -5 12 0 14 2 19 5 13 2
-7 2 -19 0 -25z m4723 3 c0 -11 -4 -22 -8 -25 -14 -9 -35 12 -29 28 9 23 37
20 37 -3z m-4777 -91 c6 -8 2 -6 -11 4 -12 11 -22 14 -22 8 0 -7 -7 -12 -15
-12 -19 0 -20 43 -1 59 11 10 15 8 19 -6 3 -12 6 -8 8 12 2 26 3 24 6 -10 3
-22 10 -47 16 -55z m-3023 70 c0 -5 -5 -10 -11 -10 -5 0 -7 5 -4 10 3 6 8 10
11 10 2 0 4 -4 4 -10z m670 -50 c0 -14 -7 -20 -22 -20 -19 0 -20 2 -8 10 10 6
11 10 3 10 -7 0 -13 9 -13 20 0 18 3 19 20 10 11 -6 20 -20 20 -30z m5969 -7
c-14 -16 -29 -8 -29 16 0 27 13 34 27 15 9 -13 10 -21 2 -31z m-56 -8 c-6 -18
-34 -16 -41 3 -2 7 6 12 22 12 19 0 24 -4 19 -15z m-5717 -19 c24 -7 27 -47 4
-58 -12 -5 -10 -8 8 -14 28 -8 29 -24 0 -24 -32 0 -88 -22 -87 -35 4 -36 -2
-45 -32 -45 -17 0 -28 4 -24 10 3 6 -1 10 -9 10 -9 0 -16 -4 -16 -10 0 -5 -18
-10 -40 -10 -24 0 -40 5 -40 12 0 6 -8 20 -17 30 -15 17 -15 19 3 36 14 13 34
18 74 18 45 -1 55 2 54 16 -1 9 4 14 11 12 19 -8 29 14 15 31 -10 12 -9 16 1
19 8 2 21 7 29 9 15 5 26 4 66 -7z m5931 -31 c-7 -16 -37 -21 -37 -5 0 10 32
31 39 25 2 -2 1 -11 -2 -20z m-269 -18 c2 -12 -3 -17 -17 -17 -12 0 -21 6 -21
13 0 31 32 34 38 4z m-3698 -21 c-25 -7 -53 -16 -62 -21 -10 -4 -18 -4 -18 -1
0 12 64 35 95 35 26 0 24 -2 -15 -13z m4300 -8 c0 -6 -6 -5 -15 2 -8 7 -15 14
-15 16 0 2 7 1 15 -2 8 -4 15 -11 15 -16z m-7040 -8 c0 -11 -30 -21 -42 -14
-7 5 -4 12 7 20 18 13 35 10 35 -6z m422 -6 c-2 -13 5 -24 20 -31 l23 -11 -28
-7 c-27 -7 -97 1 -97 11 0 16 23 44 35 44 8 0 15 5 15 11 0 6 8 9 18 7 11 -2
16 -11 14 -24z m733 6 c4 -6 1 -17 -5 -25 -8 -10 -9 -15 -2 -15 14 0 42 -29
42 -43 0 -8 -3 -7 -9 2 -6 10 -10 10 -16 2 -4 -7 3 -21 16 -32 12 -10 18 -19
13 -19 -5 -1 3 -8 19 -16 15 -8 27 -21 27 -29 0 -9 9 -15 23 -15 13 0 27 -3
30 -7 9 -8 -40 -53 -58 -53 -8 0 -19 -9 -25 -20 -6 -10 -16 -17 -23 -14 -8 3
-26 0 -41 -6 -20 -7 -25 -7 -20 2 5 8 -7 9 -47 5 -30 -4 -55 -11 -57 -17 -5
-13 -52 -13 -52 0 0 6 -7 10 -15 10 -8 0 -15 -4 -15 -9 0 -10 -51 -22 -64 -14
-4 3 -2 9 5 14 10 6 8 9 -8 9 -27 0 -41 19 -22 30 7 5 52 8 100 7 69 -1 90 2
103 16 10 9 21 17 25 17 4 0 7 9 7 19 0 16 -12 21 -86 30 -110 14 -141 23
-154 44 -18 28 7 40 96 44 63 2 94 9 132 28 36 18 44 26 32 31 -9 3 -16 10
-16 16 0 5 4 7 8 4 4 -2 14 -1 22 5 19 12 27 11 35 -1z m-1154 -66 c29 -5 38
-12 48 -41 7 -19 11 -36 9 -39 -2 -2 -35 -7 -73 -10 -66 -6 -68 -6 -62 15 3
12 0 21 -6 22 -7 1 -18 2 -24 3 -16 1 -12 21 4 21 7 0 20 8 30 18 19 19 22 19
74 11z m6159 -30 c0 -17 6 -28 20 -31 11 -3 20 -9 20 -13 0 -5 3 -16 7 -26 6
-15 1 -17 -53 -11 l-59 5 45 -12 c25 -6 40 -14 35 -18 -15 -8 -47 -4 -84 11
-24 10 -29 16 -19 23 8 5 3 6 -14 2 -16 -3 -28 -2 -28 3 0 6 -25 16 -55 23
-56 14 -73 29 -32 31 16 1 18 2 5 6 -10 2 -18 9 -18 14 0 13 26 11 89 -6 57
-15 71 -13 71 11 0 9 11 14 35 14 31 0 35 -3 35 -26z m1800 10 c0 -10 -66 -36
-94 -36 -55 0 -61 1 -49 13 18 18 82 36 113 31 17 -2 30 -6 30 -8z m-6533 -9
c1 -5 -1 -16 -6 -24 -8 -12 -12 -12 -25 -2 -24 20 -20 43 6 39 12 -2 23 -7 25
-13z m7169 -22 c15 -4 20 -10 17 -24 -6 -23 -41 -25 -49 -4 -4 8 -15 15 -25
15 -10 0 -19 4 -19 9 0 13 22 21 40 14 8 -3 25 -8 36 -10z m-8796 3 c0 -3 -4
-8 -10 -11 -5 -3 -10 -1 -10 4 0 6 5 11 10 11 6 0 10 -2 10 -4z m940 -11 c0
-8 -4 -15 -10 -15 -22 0 -9 -30 16 -36 16 -4 23 -12 20 -20 -3 -9 8 -17 34
-24 22 -6 40 -15 40 -19 0 -5 -18 -16 -40 -25 l-40 -16 15 -31 c22 -41 14 -46
-20 -15 -16 15 -32 26 -37 26 -5 0 -7 4 -3 9 3 5 1 12 -5 16 -5 3 -10 1 -10
-4 0 -17 -27 -13 -46 7 -10 9 -24 17 -33 17 -8 0 -15 11 -16 25 -3 31 4 52 15
45 5 -3 19 4 32 15 75 64 88 70 88 45z m6444 -10 c4 -16 13 -25 26 -25 16 0
19 -7 18 -42 -1 -46 -28 -142 -60 -221 -17 -38 -25 -47 -45 -47 -23 0 -24 2
-18 39 6 34 4 39 -12 38 -10 -1 -23 -8 -29 -16 -9 -12 -13 2 -18 60 -11 128
-12 126 46 185 59 59 83 67 92 29z m-1222 -37 c44 2 68 -3 105 -22 26 -13 71
-27 98 -31 60 -8 85 -20 85 -41 0 -25 -194 -16 -233 10 -16 11 -54 20 -95 24
-62 5 -146 29 -112 33 8 0 4 4 -10 9 l-25 7 25 11 c14 7 42 8 65 4 22 -4 66
-5 97 -4z m-3948 -21 c18 -17 32 -62 17 -53 -6 4 -11 12 -11 18 0 6 -7 20 -17
30 -18 20 -9 25 11 5z m-1427 -13 c-3 -3 -12 -4 -19 -1 -8 3 -5 6 6 6 11 1 17
-2 13 -5z m-642 -14 c-3 -5 -13 -10 -21 -10 -8 0 -14 5 -14 10 0 6 9 10 21 10
11 0 17 -4 14 -10z m2043 -33 c14 -11 12 -38 -3 -49 -19 -14 -96 -9 -112 8
-15 14 -14 17 7 38 25 23 81 25 108 3z m-1188 -47 c0 -5 -2 -10 -4 -10 -3 0
-8 5 -11 10 -3 6 -1 10 4 10 6 0 11 -4 11 -10z m50 -5 c0 -8 -4 -15 -10 -15
-5 0 -10 7 -10 15 0 8 5 15 10 15 6 0 10 -7 10 -15z m5430 5 c0 -5 -9 -10 -20
-10 -11 0 -20 5 -20 10 0 6 9 10 20 10 11 0 20 -4 20 -10z m-305 -64 c61 -19
137 -39 170 -45 75 -14 102 -37 31 -26 -87 12 -366 103 -366 119 0 2 12 0 28
-4 15 -5 77 -25 137 -44z m-6056 37 c0 -5 -4 -17 -9 -28 -8 -18 -9 -17 -9 8
-1 15 4 27 9 27 6 0 10 -3 9 -7z m1337 -38 c3 -17 -12 -20 -21 -5 -7 12 4 34
13 25 3 -3 7 -12 8 -20z m902 9 c12 -8 22 -20 22 -26 0 -6 -8 -4 -18 5 -10 10
-24 17 -30 17 -6 0 -14 5 -17 10 -10 15 18 12 43 -6z m3892 1 c19 -7 28 -13
20 -13 -8 0 -31 6 -50 13 -19 7 -28 13 -20 13 8 0 31 -6 50 -13z m-4630 -14
c0 -11 -15 -32 -35 -46 -19 -15 -33 -32 -32 -38 3 -14 -50 -40 -64 -31 -8 5
-6 10 5 16 9 5 16 14 16 20 0 9 -3 9 -12 0 -27 -27 -39 -14 -34 41 3 28 5 52
5 53 1 1 35 2 76 3 69 2 75 0 75 -18z m7547 -6 c9 -24 -1 -27 -15 -5 -8 13 -8
20 -2 20 6 0 13 -7 17 -15z m-6820 -15 c3 -10 2 -11 -4 -4 -4 7 -17 14 -28 17
-16 5 -15 5 4 4 14 -1 26 -9 28 -17z m-515 -2 c19 19 45 14 51 -9 7 -26 -1
-50 -17 -48 -22 3 -76 -26 -77 -41 -1 -11 -2 -11 -6 3 -2 9 -9 17 -14 17 -15
0 -10 22 9 37 15 12 14 13 -12 7 -21 -5 -27 -4 -22 5 4 6 14 11 23 11 9 0 13
6 10 15 -5 12 -2 12 19 3 18 -9 27 -9 36 0z m613 -98 c3 -5 1 -10 -4 -10 -6 0
-11 5 -11 10 0 6 2 10 4 10 3 0 8 -4 11 -10z"/>
<path d="M6810 8621 c0 -6 5 -13 10 -16 6 -3 10 1 10 9 0 9 -4 16 -10 16 -5 0
-10 -4 -10 -9z"/>
<path d="M5712 8340 c0 -19 2 -27 5 -17 2 9 2 25 0 35 -3 9 -5 1 -5 -18z"/>
<path d="M5495 7750 c-3 -5 -1 -10 4 -10 6 0 11 5 11 10 0 6 -2 10 -4 10 -3 0
-8 -4 -11 -10z"/>
<path d="M5710 7565 c0 -8 5 -15 10 -15 6 0 10 7 10 15 0 8 -4 15 -10 15 -5 0
-10 -7 -10 -15z"/>
<path d="M5547 7384 c-7 -7 14 -44 25 -44 5 0 8 6 8 14 0 16 -24 38 -33 30z"/>
<path d="M4851 7563 c-1 -16 5 -23 17 -23 10 0 13 3 6 8 -6 4 -14 14 -17 22
-4 10 -6 8 -6 -7z"/>
<path d="M4634 7532 c3 -5 0 -13 -6 -15 -9 -4 -10 -6 -1 -6 17 -1 25 16 12 25
-7 4 -9 3 -5 -4z"/>
<path d="M4650 7490 c-13 -8 -13 -10 2 -10 9 0 20 5 23 10 8 13 -5 13 -25 0z"/>
<path d="M4555 7469 c-4 -6 -4 -13 0 -17 4 -4 10 -1 12 6 3 6 10 9 15 6 7 -4
8 -2 4 4 -9 15 -23 15 -31 1z"/>
<path d="M4240 7358 c0 -9 5 -20 10 -23 13 -8 13 5 0 25 -8 13 -10 13 -10 -2z"/>
<path d="M4164 7249 c-18 -19 -23 -28 -11 -24 9 4 17 11 17 17 0 5 3 7 8 5 4
-3 13 1 19 9 27 28 -5 22 -33 -7z"/>
<path d="M4046 7103 c-6 -14 -5 -15 5 -6 7 7 10 15 7 18 -3 3 -9 -2 -12 -12z"/>
<path d="M4973 7063 c-18 -7 -16 -30 3 -37 12 -4 15 -2 10 9 -3 8 -1 15 4 15
6 0 10 5 10 10 0 11 -7 12 -27 3z"/>
<path d="M4853 6933 c-15 -6 -18 -43 -3 -43 9 0 30 31 30 44 0 7 -10 7 -27 -1z"/>
<path d="M4858 6863 c7 -3 16 -2 19 1 4 3 -2 6 -13 5 -11 0 -14 -3 -6 -6z"/>
<path d="M5525 6980 c-3 -5 -1 -10 4 -10 6 0 11 5 11 10 0 6 -2 10 -4 10 -3 0
-8 -4 -11 -10z"/>
<path d="M5562 6797 c-31 -33 -27 -42 4 -10 14 14 23 27 21 29 -2 2 -13 -6
-25 -19z"/>
<path d="M5400 6783 c0 -14 47 -56 53 -46 2 4 -9 18 -24 31 -16 13 -29 19 -29
15z"/>
<path d="M5550 6745 c-7 -9 -8 -15 -2 -15 5 0 12 7 16 15 3 8 4 15 2 15 -2 0
-9 -7 -16 -15z"/>
<path d="M5560 6710 c0 -5 9 -26 20 -45 23 -41 18 -59 -13 -49 -22 6 -22 6 -2
-9 18 -14 21 -13 32 3 11 15 9 26 -8 64 -19 44 -29 56 -29 36z"/>
<path d="M5442 6699 c-13 -5 -28 -7 -33 -3 -5 3 -9 -2 -9 -10 0 -9 2 -16 5
-16 10 0 65 30 65 35 0 6 1 6 -28 -6z"/>
<path d="M5516 6667 c6 -18 52 -43 61 -34 3 4 -1 7 -10 7 -20 0 -23 16 -4 24
6 3 3 5 -8 3 -11 -1 -26 2 -32 6 -9 5 -11 3 -7 -6z"/>
<path d="M3957 6951 c-4 -17 -3 -21 5 -13 5 5 8 16 6 23 -3 8 -7 3 -11 -10z"/>
<path d="M5935 6318 c-3 -7 -2 -40 3 -73 l7 -60 23 36 c24 39 27 49 14 49 -5
0 -14 -10 -20 -22 -10 -22 -11 -21 -12 12 -1 19 -2 43 -1 53 3 20 -7 23 -14 5z"/>
<path d="M5925 5520 c3 -5 8 -10 11 -10 2 0 4 5 4 10 0 6 -5 10 -11 10 -5 0
-7 -4 -4 -10z"/>
<path d="M5596 5731 c-3 -5 1 -11 9 -14 9 -4 12 -1 8 9 -6 16 -10 17 -17 5z"/>
<path d="M6620 4459 c0 -5 5 -7 10 -4 6 3 10 8 10 11 0 2 -4 4 -10 4 -5 0 -10
-5 -10 -11z"/>
<path d="M6793 3987 c4 -10 10 -36 13 -58 4 -21 11 -39 16 -39 5 0 6 5 3 11
-4 6 -7 26 -7 44 0 19 -7 40 -16 47 -13 11 -15 10 -9 -5z"/>
<path d="M6711 3692 c-1 -31 1 -54 4 -50 11 10 16 96 6 102 -4 3 -9 -20 -10
-52z"/>
<path d="M6740 3714 c0 -3 7 -12 15 -20 16 -17 18 -14 9 10 -6 15 -24 23 -24
10z"/>
<path d="M6747 3636 c-3 -8 -2 -18 3 -21 13 -8 24 15 12 27 -6 6 -11 4 -15 -6z"/>
<path d="M6716 3593 c3 -14 0 -29 -7 -33 -6 -5 -7 -10 -2 -13 14 -9 37 38 30
57 -10 26 -26 18 -21 -11z"/>
<path d="M6856 3565 c4 -8 8 -15 10 -15 2 0 4 7 4 15 0 8 -4 15 -10 15 -5 0
-7 -7 -4 -15z"/>
<path d="M6832 3525 c0 -16 4 -43 8 -60 l8 -30 0 30 c0 17 -4 44 -8 60 l-8 30
0 -30z"/>
<path d="M6721 3424 c0 -11 3 -14 6 -6 3 7 2 16 -1 19 -3 4 -6 -2 -5 -13z"/>
<path d="M6765 3390 c3 -5 8 -10 11 -10 2 0 4 5 4 10 0 6 -5 10 -11 10 -5 0
-7 -4 -4 -10z"/>
<path d="M6980 3388 c0 -9 5 -20 10 -23 13 -8 13 5 0 25 -8 13 -10 13 -10 -2z"/>
<path d="M7007 3320 c3 -19 7 -42 7 -51 0 -11 6 -15 16 -11 13 5 13 3 1 -11
-10 -13 -12 -32 -7 -70 4 -28 9 -70 12 -92 6 -44 34 -81 57 -72 11 4 13 15 6
54 -10 64 -43 168 -74 234 -21 46 -24 49 -18 19z"/>
<path d="M7010 3043 c0 -6 5 -15 10 -18 6 -4 8 -15 5 -25 -5 -14 -1 -18 20
-16 14 0 25 2 25 4 0 2 -13 17 -30 35 -16 18 -30 27 -30 20z"/>
<path d="M6639 3445 c-6 -10 9 -80 16 -74 1 2 0 22 -4 44 -3 22 -9 36 -12 30z"/>
<path d="M6637 3349 c4 -13 8 -18 11 -10 2 7 -1 18 -6 23 -8 8 -9 4 -5 -13z"/>
<path d="M5928 3113 c7 -3 16 -2 19 1 4 3 -2 6 -13 5 -11 0 -14 -3 -6 -6z"/>
<path d="M6243 3032 c0 -22 3 -30 10 -23 7 7 7 18 0 33 -10 22 -11 21 -10 -10z"/>
<path d="M6155 2810 c3 -5 8 -10 11 -10 2 0 4 5 4 10 0 6 -5 10 -11 10 -5 0
-7 -4 -4 -10z"/>
<path d="M6210 2786 c0 -2 7 -7 16 -10 8 -3 12 -2 9 4 -6 10 -25 14 -25 6z"/>
<path d="M6130 2772 c0 -5 7 -17 16 -28 14 -17 15 -17 10 -1 -3 10 -6 23 -6
28 0 5 -4 9 -10 9 -5 0 -10 -4 -10 -8z"/>
<path d="M5690 2481 c0 -6 4 -13 10 -16 6 -3 7 1 4 9 -7 18 -14 21 -14 7z"/>
<path d="M2281 2450 c0 -8 4 -22 9 -30 12 -18 12 -2 0 25 -6 13 -9 15 -9 5z"/>
<path d="M3391 2334 c0 -11 3 -14 6 -6 3 7 2 16 -1 19 -3 4 -6 -2 -5 -13z"/>
<path d="M3347 2285 c-15 -14 -24 -25 -19 -25 5 0 17 9 27 20 10 11 22 17 28
13 6 -3 7 -1 3 5 -9 15 -6 16 -39 -13z"/>
<path d="M3215 2233 c23 -6 52 -37 61 -65 4 -13 9 -17 15 -11 14 14 -50 83
-75 82 -20 -1 -20 -1 -1 -6z"/>
<path d="M3290 2130 c0 -5 5 -10 10 -10 6 0 10 5 10 10 0 6 -4 10 -10 10 -5 0
-10 -4 -10 -10z"/>
<path d="M5635 2130 c3 -5 12 -7 20 -3 21 7 19 13 -6 13 -11 0 -18 -4 -14 -10z"/>
<path d="M161 1674 c0 -11 3 -14 6 -6 3 7 2 16 -1 19 -3 4 -6 -2 -5 -13z"/>
<path d="M3540 1271 c0 -6 4 -13 10 -16 6 -3 7 1 4 9 -7 18 -14 21 -14 7z"/>
<path d="M8238 1183 c12 -2 32 -2 45 0 12 2 2 4 -23 4 -25 0 -35 -2 -22 -4z"/>
<path d="M3335 1100 c-3 -6 1 -7 9 -4 18 7 21 14 7 14 -6 0 -13 -4 -16 -10z"/>
<path d="M3392 930 c0 -19 2 -27 5 -17 2 9 2 25 0 35 -3 9 -5 1 -5 -18z"/>
<path d="M7410 340 c-17 -24 -23 -48 -25 -103 l-4 -72 31 65 c32 68 41 109 28
130 -5 8 -15 2 -30 -20z"/>
<path d="M7311 234 c0 -11 3 -14 6 -6 3 7 2 16 -1 19 -3 4 -6 -2 -5 -13z"/>
<path d="M6190 9490 c20 -13 67 -13 75 0 4 6 -12 10 -42 10 -35 0 -44 -3 -33
-10z"/>
<path d="M5680 9470 c0 -5 5 -10 11 -10 5 0 7 5 4 10 -3 6 -8 10 -11 10 -2 0
-4 -4 -4 -10z"/>
<path d="M4150 9381 c0 -29 14 -41 50 -41 21 0 41 6 43 13 4 10 6 10 6 0 1
-16 21 -17 21 -2 0 7 7 17 15 23 12 8 -2 12 -60 14 -41 1 -75 -2 -75 -7z"/>
<path d="M7050 9386 c0 -2 7 -6 15 -10 8 -3 15 -1 15 4 0 6 -7 10 -15 10 -8 0
-15 -2 -15 -4z"/>
<path d="M4465 9340 c3 -5 8 -10 11 -10 2 0 4 5 4 10 0 6 -5 10 -11 10 -5 0
-7 -4 -4 -10z"/>
<path d="M600 9266 c0 -2 9 -6 20 -9 11 -3 18 -1 14 4 -5 9 -34 13 -34 5z"/>
<path d="M820 9148 c0 -10 -5 -28 -12 -41 -24 -47 -28 -57 -28 -72 0 -8 5 -15
10 -15 6 0 10 -7 10 -16 0 -14 3 -14 15 -4 12 10 13 16 4 26 -9 11 -6 14 20
14 35 0 81 35 81 61 0 10 7 25 16 34 23 23 13 28 -56 30 -52 1 -60 -1 -60 -17z"/>
<path d="M5528 8963 c7 -3 16 -2 19 1 4 3 -2 6 -13 5 -11 0 -14 -3 -6 -6z"/>
<path d="M5065 8950 c-9 -15 5 -57 27 -76 16 -15 21 -16 28 -4 4 7 22 13 39
13 17 0 31 4 31 9 0 4 -5 8 -11 8 -5 0 -7 5 -4 10 4 6 11 8 16 5 5 -4 9 0 9 8
0 14 -34 17 -46 4 -11 -11 -19 -8 -44 13 -26 22 -36 25 -45 10z"/>
<path d="M4860 8818 c0 -7 4 -20 10 -28 5 -9 5 -19 -1 -26 -5 -6 -9 -29 -9
-50 -1 -85 12 -107 42 -68 15 18 17 28 8 44 -6 11 -14 46 -18 77 -4 31 -13 58
-19 61 -7 2 -13 -2 -13 -10z"/>
<path d="M5220 8780 c0 -5 5 -10 10 -10 6 0 10 5 10 10 0 6 -4 10 -10 10 -5 0
-10 -4 -10 -10z"/>
<path d="M879 8728 c-1 -5 -2 -14 -3 -20 0 -7 -8 -13 -16 -13 -34 -1 -39 -13
-24 -68 7 -28 11 -59 8 -69 -3 -10 4 -22 17 -32 12 -8 19 -21 16 -29 -3 -7 -2
-19 2 -26 6 -9 16 -2 35 21 14 18 31 38 36 45 13 16 13 60 0 68 -5 3 -10 17
-10 30 0 13 -4 26 -10 30 -5 3 -7 12 -3 20 3 9 -1 15 -10 15 -9 0 -21 8 -26
18 -6 9 -11 14 -12 10z"/>
<path d="M4880 8482 c0 -16 6 -36 13 -46 12 -17 14 -16 24 6 13 28 0 68 -22
68 -10 0 -15 -10 -15 -28z"/>
<path d="M665 8283 c4 -57 5 -63 14 -63 5 0 12 12 15 26 5 17 12 24 21 20 8
-3 16 -2 19 2 9 15 -10 32 -41 38 -28 6 -30 4 -28 -23z"/>
<path d="M1280 8300 c0 -5 -10 -10 -22 -10 -19 0 -20 -2 -8 -10 21 -13 26 -13
46 7 13 13 19 14 22 5 6 -18 32 -43 41 -38 3 3 11 -11 17 -30 9 -28 8 -38 -2
-49 -11 -11 -11 -20 0 -58 7 -25 12 -59 10 -76 -3 -29 -1 -31 27 -31 21 0 30
-4 26 -13 -8 -21 35 -14 71 11 35 26 43 47 13 37 -11 -3 -22 -1 -26 5 -3 5 -1
10 4 10 6 0 11 5 11 11 0 12 -60 92 -72 97 -5 2 -5 8 -2 14 4 6 0 14 -7 19
-12 8 -12 11 1 19 12 8 11 10 -8 10 -19 0 -22 4 -17 20 6 20 -5 25 -49 21 -15
-1 -16 2 -7 12 6 8 8 17 4 20 -10 11 -73 8 -73 -3z"/>
<path d="M1602 8167 c-14 -16 -6 -47 12 -48 6 0 23 -2 39 -4 15 -2 27 0 27 5
0 5 15 14 33 19 23 7 26 9 10 10 -12 1 -23 5 -25 10 -1 5 -21 12 -44 15 -30 5
-44 3 -52 -7z"/>
<path d="M3322 8080 c0 -14 2 -19 5 -12 2 6 2 18 0 25 -3 6 -5 1 -5 -13z"/>
<path d="M3298 7992 c-10 -2 -18 -9 -18 -15 0 -7 -4 -6 -10 3 -8 13 -10 12
-10 -2 0 -10 -7 -18 -15 -18 -19 0 -19 -5 2 -30 24 -28 52 -25 64 7 13 36 8
59 -13 55z"/>
<path d="M696 7983 c-4 -4 -24 -6 -45 -4 -36 2 -40 0 -46 -29 -4 -17 -14 -34
-23 -38 -10 -3 -23 -12 -30 -19 -7 -7 -27 -13 -43 -13 -18 0 -29 -5 -29 -14 0
-7 -9 -16 -19 -19 -29 -7 -22 -52 13 -82 16 -14 32 -25 36 -25 3 0 17 -23 29
-50 13 -28 26 -48 30 -45 17 10 70 -20 76 -42 3 -13 10 -23 15 -23 6 0 10 -21
10 -48 0 -50 -16 -73 -59 -87 -12 -3 -21 -11 -21 -16 0 -5 -26 -9 -57 -9 -31
0 -53 -3 -49 -7 4 -5 -23 -18 -60 -29 -73 -23 -104 -18 -104 18 0 9 -5 20 -11
23 -7 5 -4 15 6 32 10 14 13 23 8 20 -18 -11 -46 23 -48 59 -1 20 -8 40 -15
44 -9 5 -9 9 -1 14 6 4 9 11 6 16 -3 5 4 11 15 15 33 10 24 28 -11 21 -17 -3
-36 -6 -41 -6 -6 0 -8 -7 -4 -15 4 -11 -1 -15 -17 -15 -24 0 -56 -29 -50 -47
2 -6 -6 -9 -20 -6 -27 5 -45 -13 -29 -29 17 -17 2 -38 -48 -63 -25 -13 -48
-30 -49 -37 -5 -29 -9 -232 -5 -216 6 18 29 29 54 25 32 -6 99 -62 102 -87 2
-16 9 -24 19 -22 9 1 22 -5 29 -13 11 -13 8 -15 -19 -15 -17 0 -31 -4 -31 -10
0 -5 -16 -10 -35 -10 -26 0 -33 -3 -29 -15 4 -8 1 -15 -6 -15 -6 0 -8 -4 -5
-10 3 -5 2 -10 -3 -10 -18 0 -1 -38 29 -64 16 -14 37 -26 48 -26 10 0 21 -7
25 -15 4 -11 21 -15 61 -15 49 0 55 -2 55 -21 0 -12 12 -32 26 -44 36 -31 26
-62 -23 -71 -29 -6 -40 -3 -52 12 -9 11 -31 26 -49 33 -43 18 -52 9 -80 -78
-23 -69 -18 -101 18 -101 10 0 20 -6 23 -12 2 -9 26 -13 73 -12 38 0 59 -1 46
-4 -52 -8 -3 -39 66 -41 26 -1 36 -7 45 -28 9 -21 18 -27 35 -25 12 2 22 6 23
10 1 4 2 21 3 37 1 29 36 93 36 67 0 -6 5 -12 10 -12 14 0 12 48 -2 52 -6 2
-39 0 -72 -4 -33 -5 -66 -6 -73 -3 -15 5 -18 61 -4 69 14 9 43 -5 38 -19 -4
-8 17 -11 80 -9 46 1 86 4 88 6 3 2 0 22 -7 44 -6 21 -12 53 -13 69 -2 17 -3
36 -4 43 -1 8 -18 11 -58 10 -47 -3 -58 0 -61 14 -2 12 11 25 46 42 62 32 82
51 82 81 0 26 18 44 29 28 3 -6 20 -9 38 -8 31 2 41 -8 57 -58 5 -14 11 -17
28 -11 13 5 37 8 54 9 17 0 37 5 45 11 22 18 59 27 59 15 0 -6 19 -11 43 -11
24 0 58 -7 75 -16 18 -8 45 -16 62 -16 16 -1 30 -5 30 -10 0 -4 5 -8 11 -8 5
0 7 5 4 11 -4 6 2 13 13 16 13 3 18 11 15 19 -3 9 1 14 12 14 9 0 14 4 11 8
-6 11 -64 3 -72 -9 -9 -16 -37 -10 -30 6 3 8 1 15 -3 15 -5 0 -12 -7 -15 -16
-5 -14 -18 -6 -63 40 -37 35 -66 56 -81 56 -35 0 -92 27 -92 44 0 9 7 17 15
17 38 3 58 17 51 34 -4 13 2 23 55 84 14 16 17 27 10 34 -7 7 -5 14 7 23 24
19 32 17 32 -7 0 -20 4 -21 68 -17 55 4 74 10 92 28 l24 24 13 -31 c14 -35 17
-38 55 -47 17 -4 32 -1 40 8 8 7 42 17 75 21 34 4 70 13 80 21 11 8 13 13 6
14 -7 0 -13 6 -13 14 0 7 -10 24 -23 37 -44 47 -48 55 -38 80 5 13 12 36 15
50 4 20 20 32 71 55 62 28 64 30 65 65 0 21 -7 42 -15 49 -8 7 -15 19 -15 26
0 8 -4 14 -10 14 -5 0 -10 18 -10 39 0 22 -5 43 -11 46 -21 14 -57 -5 -67 -35
-6 -16 -16 -30 -23 -30 -7 0 -20 -7 -30 -16 -13 -12 -28 -14 -57 -9 -36 6 -40
10 -57 58 -9 29 -25 63 -34 77 -8 14 -16 29 -16 34 0 9 -87 44 -112 45 -21 1
-16 -73 5 -92 10 -10 23 -17 28 -17 5 -1 23 -19 40 -42 27 -35 29 -44 20 -64
-6 -13 -19 -24 -28 -24 -9 0 -30 -11 -46 -25 -17 -14 -34 -25 -39 -25 -5 0
-14 -5 -20 -11 -7 -7 -47 -14 -90 -16 -43 -3 -80 -8 -83 -12 -9 -11 -30 -7
-40 9 -5 8 -10 11 -10 5 0 -5 -7 -1 -15 9 -21 28 -19 69 5 84 11 7 20 19 20
27 0 7 11 26 25 41 19 20 23 33 18 53 -9 37 -13 43 -30 37 -28 -11 -68 53 -43
69 17 10 11 35 -8 35 -10 0 -22 -3 -26 -7z m49 -213 c-5 -8 -11 -8 -17 -2 -6
6 -7 16 -3 22 5 8 11 8 17 2 6 -6 7 -16 3 -22z m372 -86 c-3 -3 -12 -4 -19 -1
-8 3 -5 6 6 6 11 1 17 -2 13 -5z m53 -9 c0 -8 -7 -15 -15 -15 -8 0 -15 7 -15
15 0 8 7 15 15 15 8 0 15 -7 15 -15z m18 -35 c3 -7 13 -21 24 -32 12 -12 18
-30 16 -46 -3 -23 -7 -27 -32 -24 -25 3 -28 1 -18 -11 10 -12 7 -15 -20 -19
-73 -11 -95 28 -73 129 4 19 11 21 52 18 26 -1 49 -8 51 -15z m-18 -170 c12
-8 11 -10 -7 -10 -13 0 -23 5 -23 10 0 13 11 13 30 0z m-860 -750 c0 -5 -5
-10 -11 -10 -5 0 -7 5 -4 10 3 6 8 10 11 10 2 0 4 -4 4 -10z"/>
<path d="M3025 7876 c-19 -13 -19 -16 -3 -49 22 -46 52 -53 76 -19 33 47 34
62 7 62 -13 0 -27 5 -30 10 -9 14 -28 12 -50 -4z"/>
<path d="M1746 7841 c-4 -7 -5 -15 -2 -18 9 -9 19 4 14 18 -4 11 -6 11 -12 0z"/>
<path d="M1628 7765 c-3 -3 -3 -16 -1 -28 3 -17 11 -22 31 -21 29 1 43 24 15
25 -10 0 -13 3 -5 6 6 2 10 9 6 14 -6 10 -37 12 -46 4z"/>
<path d="M0 7671 c0 -55 3 -71 14 -71 8 0 20 -2 28 -5 7 -3 19 -1 27 4 12 8
12 12 2 25 -7 8 -11 33 -9 58 3 37 0 43 -17 43 -11 0 -26 4 -32 8 -10 6 -13
-8 -13 -62z"/>
<path d="M1700 7733 c0 -5 5 -15 10 -23 8 -12 10 -11 10 8 0 12 -4 22 -10 22
-5 0 -10 -3 -10 -7z"/>
<path d="M1674 7560 c-22 -11 -48 -28 -57 -38 -17 -18 -15 -19 36 -31 30 -6
62 -9 73 -5 42 14 84 35 84 43 0 13 -33 38 -50 38 -8 1 -22 3 -30 6 -8 3 -33
-3 -56 -13z"/>
<path d="M2195 7460 c3 -5 8 -10 11 -10 2 0 4 5 4 10 0 6 -5 10 -11 10 -5 0
-7 -4 -4 -10z"/>
<path d="M1475 7370 c-3 -5 -17 -10 -30 -10 -13 0 -27 -4 -30 -10 -3 -5 3 -10
14 -10 12 0 20 -6 19 -12 -2 -8 9 -14 25 -16 27 -3 38 12 15 21 -9 4 -8 6 2 6
18 1 21 41 3 41 -6 0 -15 -4 -18 -10z"/>
<path d="M1062 7293 c2 -10 10 -18 18 -18 22 0 18 29 -3 33 -14 3 -18 -1 -15
-15z"/>
<path d="M1434 7096 c-8 -34 -2 -40 31 -29 l26 8 -25 24 -25 24 -7 -27z"/>
<path d="M882 6777 l-23 -13 32 -27 c18 -15 38 -27 45 -27 6 0 24 16 38 35 25
32 25 35 8 35 -11 0 -32 2 -48 5 -16 3 -39 -1 -52 -8z"/>
<path d="M160 6590 c0 -5 5 -10 10 -10 6 0 10 5 10 10 0 6 -4 10 -10 10 -5 0
-10 -4 -10 -10z"/>
<path d="M0 5907 l0 -595 39 15 c32 12 40 22 45 48 6 28 11 33 44 39 20 3 66
6 102 7 36 1 57 3 48 6 -19 5 -25 33 -8 33 19 0 10 28 -15 44 -14 10 -31 28
-37 42 -6 13 -22 27 -35 30 -13 4 -23 10 -23 15 0 5 -7 9 -15 9 -9 0 -23 16
-32 35 -14 30 -15 39 -3 76 13 37 12 43 -3 54 -14 10 -16 21 -11 54 7 45 21
61 54 64 12 1 26 9 31 19 5 10 20 18 32 18 12 0 37 9 55 20 18 11 42 20 53 20
22 0 103 60 93 69 -6 7 -13 8 -49 10 -32 1 -33 21 0 21 17 0 23 4 19 14 -3 8
-1 17 5 21 6 3 11 1 11 -4 0 -6 9 -2 20 9 l21 21 -23 32 c-31 44 -48 56 -81
57 -16 0 -26 4 -23 8 9 15 -58 77 -108 101 -65 32 -99 91 -52 91 17 0 9 45
-11 61 -10 9 -17 9 -25 1 -16 -16 -28 -15 -28 2 0 8 -11 13 -28 13 -15 0 -35
3 -44 7 -17 8 -18 -24 -18 -587z m177 347 c8 -21 -9 -48 -33 -53 -10 -2 -22
-8 -26 -15 -11 -17 -13 40 -3 72 6 18 55 15 62 -4z m-72 -209 c0 -10 -5 -20
-11 -22 -13 -4 -27 24 -18 38 9 15 29 4 29 -16z m-25 -54 c0 -3 3 -16 6 -28 4
-13 2 -23 -2 -23 -14 1 -46 49 -39 60 6 9 35 3 35 -9z"/>
<path d="M545 6061 c-3 -5 -1 -12 5 -16 5 -3 10 1 10 9 0 18 -6 21 -15 7z"/>
<path d="M340 5915 c0 -18 5 -25 20 -25 22 0 26 20 8 38 -19 19 -28 14 -28
-13z"/>
<path d="M387 5852 c6 -24 -64 -96 -112 -117 -32 -13 -36 -18 -33 -47 2 -25 9
-34 28 -38 17 -4 25 -13 25 -29 0 -28 31 -53 43 -34 6 9 18 9 51 1 33 -8 48
-8 63 1 17 10 22 9 33 -6 13 -17 14 -16 24 10 6 16 11 34 11 42 0 8 5 17 10
20 6 3 10 13 10 21 0 20 27 47 39 40 14 -9 40 39 34 63 -5 20 -10 21 -69 15
-43 -5 -64 -3 -64 4 0 6 -8 13 -18 17 -11 3 -24 17 -30 30 -14 30 -53 35 -45
7z"/>
<path d="M686 5712 c11 -9 32 -33 47 -54 24 -33 29 -35 52 -25 43 20 31 43
-40 71 -76 30 -88 32 -59 8z"/>
<path d="M940 5680 c-19 -27 -41 -50 -47 -50 -18 0 -16 -5 12 -36 14 -15 29
-41 33 -58 13 -50 43 -46 104 14 29 29 72 61 95 72 32 15 43 26 43 42 0 43
-20 53 -115 60 l-90 5 -35 -49z"/>
<path d="M1936 5659 c-12 -14 -14 -24 -7 -28 16 -10 9 -54 -10 -58 -9 -3 -20
-19 -23 -36 -3 -17 -14 -39 -23 -49 -15 -17 -14 -18 30 -18 28 0 49 -5 54 -14
15 -24 72 -47 106 -41 71 11 117 13 122 5 3 -5 12 -7 19 -4 8 3 20 -3 27 -13
21 -28 39 -37 39 -19 0 9 -7 16 -15 16 -16 0 -22 55 -7 62 13 6 71 97 78 122
4 18 1 27 -14 35 -20 10 -89 4 -107 -10 -25 -19 -118 -14 -141 8 -12 13 -99
63 -108 63 -1 0 -10 -10 -20 -21z"/>
<path d="M2515 5610 c4 -6 11 -8 16 -5 14 9 11 15 -7 15 -8 0 -12 -5 -9 -10z"/>
<path d="M473 5503 c-7 -2 -13 -14 -13 -26 -1 -12 -7 -33 -15 -47 -22 -38 -18
-76 10 -106 14 -15 25 -30 25 -34 0 -6 12 -22 50 -67 16 -20 12 -43 -9 -43
-10 0 -25 -7 -32 -17 -13 -15 -11 -16 16 -9 l30 7 -24 -22 c-14 -13 -33 -23
-43 -24 -24 0 -24 -17 1 -34 19 -12 22 -11 30 12 14 37 47 44 72 16 11 -12 17
-30 14 -40 -3 -9 -1 -20 5 -24 6 -3 8 -11 5 -16 -4 -5 1 -9 9 -9 9 0 16 -4 16
-9 0 -11 59 -36 67 -27 8 8 -14 109 -31 141 -7 14 -16 22 -19 18 -4 -3 -7 1
-7 11 0 9 4 15 9 12 5 -3 12 10 15 30 4 19 16 44 27 55 10 10 19 27 19 37 0 9
7 30 15 46 9 16 13 36 11 43 -7 16 -58 17 -74 1 -16 -16 -62 5 -62 29 0 9 -21
36 -46 60 -48 44 -50 45 -71 36z"/>
<path d="M270 5384 c0 -8 5 -12 10 -9 6 4 8 11 5 16 -9 14 -15 11 -15 -7z"/>
<path d="M380 5120 c0 -5 5 -10 11 -10 5 0 7 -5 3 -12 -4 -7 -3 -8 5 -4 6 4
14 0 18 -11 11 -29 53 -47 53 -23 0 6 -6 10 -13 10 -7 0 -23 14 -35 30 -22 30
-42 39 -42 20z"/>
<path d="M711 4933 c-16 -17 -12 -22 19 -25 28 -4 36 13 12 28 -13 9 -21 8
-31 -3z"/>
<path d="M735 4880 c4 -6 11 -8 16 -5 14 9 11 15 -7 15 -8 0 -12 -5 -9 -10z"/>
<path d="M1380 4711 c0 -5 7 -11 14 -14 10 -4 13 -1 9 9 -6 15 -23 19 -23 5z"/>
<path d="M2100 4706 c0 -10 9 -16 21 -16 24 0 21 23 -4 28 -10 2 -17 -3 -17
-12z"/>
<path d="M2010 4680 c0 -5 7 -10 15 -10 8 0 15 5 15 10 0 6 -7 10 -15 10 -8 0
-15 -4 -15 -10z"/>
<path d="M1934 4666 c-7 -18 -61 -28 -141 -27 -34 0 -65 -4 -68 -9 -8 -13 -62
-13 -70 0 -11 17 -45 11 -46 -7 0 -12 -2 -14 -6 -5 -7 17 -73 -53 -73 -77 0
-14 -2 -14 -11 -1 -8 11 -9 9 -3 -10 3 -14 7 -25 8 -25 0 0 19 -9 40 -20 24
-12 50 -37 65 -62 17 -28 33 -43 46 -43 11 0 37 -9 58 -20 30 -16 37 -17 37
-5 0 24 49 31 65 9 8 -11 15 -14 15 -7 0 14 60 46 60 32 0 -13 31 -11 62 5 14
8 43 20 64 26 62 21 154 120 112 120 -9 0 -10 2 -2 8 11 7 12 77 1 88 -3 3 -3
12 0 20 3 8 -1 14 -11 14 -9 0 -19 -7 -22 -15 -7 -17 -34 -21 -34 -5 0 6 -14
10 -31 10 -26 0 -31 -3 -26 -20 4 -14 -5 -28 -34 -51 -21 -17 -39 -27 -39 -22
0 4 -7 -1 -15 -11 -13 -17 -15 -18 -15 -3 0 9 -5 17 -10 17 -7 0 -7 6 -1 19 6
10 7 21 4 25 -3 3 0 6 7 6 15 0 39 29 40 48 0 17 -19 15 -26 -2z m-29 -116 c3
-5 1 -10 -4 -10 -6 0 -11 5 -11 10 0 6 2 10 4 10 3 0 8 -4 11 -10z"/>
<path d="M596 4532 c-7 -12 4 -72 14 -72 8 0 7 66 -2 75 -3 4 -9 2 -12 -3z"/>
<path d="M690 285 c0 -8 5 -15 10 -15 6 0 10 7 10 15 0 8 -4 15 -10 15 -5 0
-10 -7 -10 -15z"/>
<path d="M385 230 c-3 -5 -1 -10 4 -10 6 0 11 5 11 10 0 6 -2 10 -4 10 -3 0
-8 -4 -11 -10z"/>
<path d="M4618 233 c12 -2 30 -2 40 0 9 3 -1 5 -23 4 -22 0 -30 -2 -17 -4z"/>
<path d="M4880 231 c0 -10 50 -25 57 -18 2 3 -10 9 -26 15 -17 6 -31 7 -31 3z"/>
<path d="M9037 173 c-10 -10 -8 -50 5 -115 l12 -58 48 0 c54 0 55 2 34 75 -21
67 -76 122 -99 98z"/>
<path d="M8902 127 c-12 -13 -16 -45 -14 -94 l2 -33 56 0 56 0 -7 43 c-8 46
-22 78 -39 89 -17 12 -42 9 -54 -5z m28 -68 c0 -4 -7 -9 -15 -13 -9 -3 -15 0
-15 8 0 7 7 13 15 13 8 0 15 -4 15 -8z"/>
<path d="M8728 30 l-31 -30 62 0 c52 0 61 3 61 18 0 48 -47 54 -92 12z"/>
</g>
</svg>
